<svg width="13" height="22" viewBox="0 0 13 22" fill="none" xmlns="http://www.w3.org/2000/svg">
<path d="M0.426118 10.1416L10.2164 0.351461C10.4428 0.124845 10.7451 0 11.0674 0C11.3897 0 11.692 0.124845 11.9184 0.351461L12.6394 1.07227C13.1086 1.54195 13.1086 2.30533 12.6394 2.7743L4.41828 10.9954L12.6485 19.2257C12.875 19.4523 13 19.7544 13 20.0765C13 20.399 12.875 20.7011 12.6485 20.9279L11.9276 21.6485C11.7009 21.8752 11.3988 22 11.0765 22C10.7542 22 10.452 21.8752 10.2255 21.6485L0.426118 11.8495C0.199144 11.6222 0.0744791 11.3186 0.0751944 10.996C0.0744791 10.6721 0.199144 10.3687 0.426118 10.1416Z" fill="black"/>
</svg>
