<svg width="37" height="37" viewBox="0 0 37 37" fill="none" xmlns="http://www.w3.org/2000/svg">
<path d="M33.748 26.0182H21.8479V7.68387C21.8479 5.83771 20.3462 4.33594 18.5 4.33594C16.6538 4.33594 15.1521 5.83771 15.1521 7.68387V26.0182H3.25195C1.45886 26.0182 0 27.477 0 29.2701V29.4624C0 31.2554 1.45886 32.7143 3.25195 32.7143H33.748C35.5411 32.7143 37 31.2554 37 29.4624V29.2701C37 27.477 35.5411 26.0182 33.748 26.0182Z" fill="#3889FF"/>
<path d="M12.9844 8.21967C11.5165 8.79723 10.1607 9.59864 8.95788 10.581V19.0807C8.95788 19.6794 8.47263 20.1647 7.87389 20.1647C7.27544 20.1647 6.78991 19.6794 6.78991 19.0807V12.7504C4.66711 15.3525 3.39258 18.6725 3.39258 22.2846V23.8502H12.9844V8.21967Z" fill="#3889FF"/>
<path d="M33.6084 22.2846C33.6084 18.6462 32.315 15.3045 30.1645 12.6939V19.1529C30.1645 19.7517 29.6793 20.2369 29.0806 20.2369C28.4818 20.2369 27.9966 19.7517 27.9966 19.1529V10.5435C26.8056 9.57832 25.4656 8.78989 24.0166 8.21967V23.8502H33.6084V22.2846Z" fill="#3889FF"/>
</svg>
