<svg width="22" height="22" viewBox="0 0 22 22" fill="none" xmlns="http://www.w3.org/2000/svg">
<g clip-path="url(#clip0_1840:649)">
<path d="M16.7075 6.56441C17.4987 7.21873 19.6694 9.01347 19.3157 10.2734C19.1521 10.8393 18.5022 11.0205 18.0203 11.1973C16.9107 11.5996 15.7702 11.9179 14.6119 12.1522C13.6747 12.3423 11.6721 12.7578 12.0434 11.1C12.1892 10.459 12.7065 9.91519 13.1221 9.43332C13.9753 8.42985 14.8463 7.3688 15.8763 6.54657C15.9603 6.48021 16.0619 6.46256 16.1504 6.47587C16.3228 6.40527 16.5306 6.41414 16.7075 6.56441Z" fill="#004EBF"/>
<path d="M15.5398 19.7913C14.8458 19.2298 14.355 18.3501 13.9306 17.5809C13.515 16.8383 12.8608 15.8568 12.7503 14.9948C12.5249 13.222 15.0933 14.2875 15.8316 14.5439C16.813 14.8887 19.4433 15.2689 19.1516 16.8029C18.9084 18.0539 17.4009 19.5791 16.1411 19.7736C16.1279 19.7781 16.1101 19.7736 16.0925 19.7736C16.088 19.7781 16.0836 19.7825 16.0793 19.7868C16.0439 19.8045 16.0041 19.8267 15.9643 19.8443C15.8139 19.924 15.6681 19.893 15.5398 19.7913Z" fill="#004EBF"/>
<path d="M9.79808 15.2291C11.1951 14.65 11.3233 16.2105 11.3144 17.1565C11.3012 18.2838 11.2658 19.4155 11.1818 20.5384C11.1508 20.9937 11.1685 21.5419 10.7353 21.8293C10.2004 22.1829 9.17039 21.9044 8.61773 21.732C8.60008 21.7232 8.58233 21.7144 8.56468 21.7099C7.40207 21.5066 5.98299 20.9717 5.84594 19.8975C5.83263 19.7737 5.88134 19.6632 5.95647 19.5792C5.99187 19.5128 6.02717 19.451 6.067 19.3935C6.23946 19.1548 6.43834 18.9426 6.63731 18.726C6.97325 18.2265 7.33581 17.7446 7.72035 17.2804C8.27735 16.6084 8.96254 15.5739 9.79808 15.2291Z" fill="#004EBF"/>
<path d="M10.002 10.3839C7.96404 8.70848 5.97909 6.11349 4.95344 3.71304C4.17094 1.88724 6.16032 0.773237 7.69427 0.269285C9.76322 -0.411557 10.5855 0.18084 10.7932 2.24979C10.9657 4.03132 11.0452 5.82617 11.0319 7.61657C11.0275 8.37255 11.2397 9.59264 10.7976 10.2735C10.8683 10.552 10.4484 10.7509 10.2097 10.5608C10.1743 10.5343 10.139 10.4989 10.0992 10.4679C10.0639 10.4458 10.0329 10.4193 10.002 10.3839Z" fill="#004EBF"/>
<path d="M9.78029 12.9789C9.94386 13.7039 9.43104 13.9957 8.82986 14.2698C7.76004 14.7517 6.63717 15.1363 5.50986 15.4546C4.85554 15.6358 3.85207 16.0691 3.21994 15.5872C2.74251 15.2248 2.71155 14.4688 2.66737 13.9206C2.57015 12.696 2.75582 9.77387 4.45334 9.65013C5.28445 9.59264 6.32332 10.3353 7.00416 10.7244C7.9104 11.2461 8.88301 11.8428 9.55932 12.6607C9.66088 12.7181 9.74489 12.8198 9.78029 12.9789Z" fill="#004EBF"/>
</g>
<defs>
<clipPath id="clip0_1840:649">
<rect width="22" height="22" fill="white"/>
</clipPath>
</defs>
</svg>
