<svg width="33" height="23" viewBox="0 0 33 23" fill="none" xmlns="http://www.w3.org/2000/svg">
<path d="M31.013 10.9895L29.0445 5.83252H21.6123L23.5809 10.9895H31.013Z" fill="#004EBF"/>
<path d="M28.5809 4.6167L27.1308 0.81806C26.9447 0.331834 26.4442 0.00626456 25.8823 0.00585938H19.3887L21.1488 4.6167H28.5809Z" fill="#004EBF"/>
<path d="M24.4704 16.9978L22.6407 12.2051H16.3008L18.1304 16.9978H24.4704Z" fill="#004EBF"/>
<path d="M19.7445 4.61694L17.9844 0.00634766H11.6445L13.4046 4.61694H19.7445Z" fill="#004EBF"/>
<path d="M9.83569 16.9978H16.7263L14.8967 12.2051H7.06738L8.58721 16.1852C8.77316 16.6715 9.27365 16.9972 9.83569 16.9978Z" fill="#004EBF"/>
<path d="M14.4326 10.9895L12.464 5.83252H4.63477L6.60327 10.9895H14.4326Z" fill="#004EBF"/>
<path d="M3.13184 6.9248V9.53296H4.64227L3.64681 6.9248H3.13184Z" fill="#004EBF"/>
<path d="M13.8682 5.83252L15.8367 10.9895H22.1766L20.2081 5.83252H13.8682Z" fill="#004EBF"/>
<path d="M4.06879 4.6106H11.8981L10.1379 0H4.17331C3.44267 0.000101298 2.85048 0.543263 2.85059 1.21315C2.85059 1.3495 2.87567 1.48483 2.92483 1.61358L4.06879 4.6106Z" fill="#004EBF"/>
<path d="M31.442 16.9978C32.1726 16.9977 32.7648 16.4545 32.7647 15.7846C32.7647 15.6483 32.7396 15.5129 32.6905 15.3842L31.477 12.2051H24.0449L25.8744 16.9978H31.442Z" fill="#004EBF"/>
<path d="M25.6031 22.0046C26.3334 22.0038 26.9251 21.4613 26.9259 20.7917V18.2133H9.83502C8.70973 18.2125 7.70753 17.5607 7.33497 16.5871L5.10628 10.7485H2.43652V20.7917C2.4373 21.4613 3.02905 22.0038 3.75936 22.0046H25.6031Z" fill="#004EBF"/>
<path d="M0.947266 6.9248H1.80585V9.53296H0.947266V6.9248Z" fill="#004EBF"/>
</svg>
