<svg width="9" height="6" viewBox="0 0 9 6" fill="none" xmlns="http://www.w3.org/2000/svg">
<path d="M4.37039 4.98585L0.652984 1.10377C0.566936 1.01398 0.519531 0.89412 0.519531 0.766317C0.519531 0.638515 0.566936 0.518656 0.652984 0.428868L0.926682 0.14298C1.10503 -0.0430499 1.39489 -0.0430499 1.57296 0.14298L4.69461 3.40286L7.81973 0.139363C7.90578 0.0495747 8.02049 -8.9448e-08 8.1428 -9.09066e-08C8.26525 -9.23668e-08 8.37996 0.0495747 8.46608 0.139363L8.73971 0.425251C8.82576 0.51511 8.87316 0.634898 8.87316 0.7627C8.87316 0.890502 8.82576 1.01036 8.73971 1.10015L5.01891 4.98585C4.93259 5.07585 4.81734 5.12528 4.69482 5.125C4.57182 5.12528 4.45664 5.07585 4.37039 4.98585Z" fill="white"/>
</svg>
