<svg width="23" height="19" viewBox="0 0 23 19" fill="none" xmlns="http://www.w3.org/2000/svg">
<g clip-path="url(#clip0_3008_1062)">
<path d="M17.0349 3.38408C16.66 3.38526 16.2861 3.42209 15.9184 3.49405C15.3327 2.45978 14.442 1.62442 13.3636 1.09823C12.2853 0.572027 11.07 0.379716 9.8782 0.546671C8.6864 0.713626 7.5741 1.232 6.68807 2.03339C5.80204 2.83477 5.18392 3.8815 4.9153 5.03544C4.80166 5.02657 4.69344 5.02125 4.58522 5.02125C2.05992 5.02125 0 7.09121 0 9.63299C0 10.8108 0.452756 12.9109 1.30414 13.7889C1.34488 13.8309 1.39385 13.8643 1.44811 13.8872C1.50237 13.9101 1.56077 13.9219 1.6198 13.9219H8.7303C8.84099 13.9149 8.94482 13.8667 9.02068 13.7872C9.09655 13.7076 9.13877 13.6026 9.13877 13.4936C9.13877 13.3845 9.09655 13.2795 9.02068 13.1999C8.94482 13.1204 8.84099 13.0722 8.7303 13.0652H1.82182C1.26085 12.3291 0.871229 10.6848 0.871229 9.63299C0.871229 7.56125 2.53793 5.87442 4.58522 5.87442C4.78607 5.87577 4.98644 5.89416 5.18407 5.9294C5.298 5.94636 5.41415 5.91871 5.50757 5.85238C5.601 5.78605 5.66423 5.68633 5.68371 5.57465C5.88953 4.4 6.50758 3.33345 7.43035 2.56054C8.35312 1.78762 9.52222 1.35724 10.7343 1.34427C11.6875 1.34869 12.6205 1.61514 13.4279 2.1135C14.2353 2.61185 14.8849 3.32228 15.3033 4.16453C15.3476 4.25177 15.4211 4.32139 15.5114 4.36175C15.6017 4.40211 15.7033 4.41076 15.7993 4.38625C16.2029 4.28348 16.618 4.23045 17.0349 4.22838C19.8434 4.22838 22.1306 6.53426 22.1306 9.38112C22.1306 10.472 21.8131 12.1836 21.3387 13.0563H14.4339C14.3232 13.0633 14.2193 13.1115 14.1435 13.1911C14.0676 13.2706 14.0254 13.3756 14.0254 13.4847C14.0254 13.5938 14.0676 13.6987 14.1435 13.7783C14.2193 13.8579 14.3232 13.906 14.4339 13.913H21.5858C21.6572 13.913 21.7274 13.8956 21.7903 13.8625C21.8533 13.8294 21.9069 13.7816 21.9466 13.7233C22.6356 12.7193 23.0018 10.5571 23.0018 9.38112C23.0018 6.08018 20.325 3.38408 17.0349 3.38408Z" fill="#0071BC"/>
<path d="M11.8629 7.97814C11.8225 7.92284 11.7692 7.8778 11.7076 7.84672C11.646 7.81565 11.5777 7.79944 11.5085 7.79944C11.4392 7.79944 11.3709 7.81565 11.3093 7.84672C11.2477 7.8778 11.1944 7.92284 11.154 7.97814L9.21134 10.6583C9.1522 10.7509 9.13126 10.8623 9.15278 10.9696C9.17431 11.0769 9.23667 11.1721 9.32715 11.2357C9.41763 11.2993 9.5294 11.3265 9.63962 11.3119C9.74984 11.2972 9.85021 11.2417 9.92023 11.1567L11.0728 9.56033V18.0743C11.069 18.1329 11.0774 18.1916 11.0976 18.2469C11.1177 18.3021 11.1492 18.3527 11.19 18.3955C11.2309 18.4383 11.2802 18.4724 11.335 18.4958C11.3897 18.5191 11.4488 18.5311 11.5085 18.5311C11.5681 18.5311 11.6272 18.5191 11.682 18.4958C11.7367 18.4724 11.7861 18.4383 11.8269 18.3955C11.8677 18.3527 11.8992 18.3021 11.9193 18.2469C11.9395 18.1916 11.9479 18.1329 11.9441 18.0743V9.56033L13.0967 11.1567C13.1283 11.2063 13.17 11.249 13.219 11.2821C13.2681 11.3153 13.3235 11.3383 13.3819 11.3496C13.4403 11.3609 13.5005 11.3604 13.5587 11.348C13.6169 11.3356 13.6719 11.3117 13.7203 11.2776C13.7687 11.2436 13.8095 11.2002 13.8403 11.15C13.871 11.0999 13.891 11.0441 13.899 10.9861C13.907 10.9281 13.9028 10.8691 13.8867 10.8127C13.8707 10.7563 13.8431 10.7038 13.8056 10.6583L11.8629 7.97814Z" fill="#0071BC"/>
</g>
<defs>
<clipPath id="clip0_3008_1062">
<rect width="23" height="18" fill="white" transform="translate(0 0.5)"/>
</clipPath>
</defs>
</svg>
