<svg width="29" height="29" viewBox="0 0 29 29" fill="none" xmlns="http://www.w3.org/2000/svg">
<g clip-path="url(#clip0)">
<path d="M10.4219 20.845H9.99301C9.59188 20.845 9.22395 20.594 9.10438 20.2111C8.95961 19.7474 9.20197 19.2625 9.64365 19.0931L16.4414 16.4787C16.9188 16.295 17.1481 15.7537 16.9511 15.2816C14.2695 8.85499 13.5985 0.927886 13.5909 0.834656C13.5218 -0.0180019 12.4107 -0.309584 11.9336 0.404759L10.6235 2.3696L8.65925 1.06008C8.13935 0.71305 7.42909 0.985715 7.27723 1.5942L6.68252 3.97138L5.03429 2.87256C4.5144 2.52553 3.80413 2.79819 3.65228 3.40668L3.05756 5.78386L1.40934 4.68504C0.781425 4.26642 -0.0561667 4.75663 0.0029654 5.50915C0.0210902 5.74421 0.469112 11.3351 2.16888 17.0263C3.1816 20.4162 4.43334 23.1304 5.88899 25.0947C6.91044 26.4717 8.47608 27.1887 10.0578 27.1887H10.3738C12.1145 27.1887 13.5669 25.8064 13.5934 24.0659C13.6203 22.2945 12.1872 20.845 10.4219 20.845ZM4.5959 11.2128C4.41012 10.7483 4.63611 10.221 5.10113 10.0347L9.63232 8.22221C10.0968 8.03643 10.6241 8.26242 10.8104 8.72744C10.9962 9.19188 10.7702 9.7192 10.3052 9.90555C5.39815 11.8683 5.68775 11.7826 5.43757 11.7826C5.07847 11.7826 4.73807 11.5674 4.5959 11.2128ZM6.68025 15.343C6.22232 15.5262 5.69064 15.3079 5.50214 14.8378C5.31636 14.3733 5.54235 13.846 6.00737 13.6596L10.5386 11.8472C11.003 11.6614 11.5303 11.8874 11.7167 12.3524C11.9025 12.8168 11.6765 13.3442 11.2114 13.5305L6.68025 15.343ZM24.4686 15.4076C24.2319 15.4076 24.7 15.2541 18.1481 17.774C18.1402 17.7607 13.7649 19.4499 13.7723 19.447C13.45 19.571 13.381 19.9934 13.6442 20.2169C16.4018 22.5586 15.829 26.9537 12.5667 28.5155C12.3232 28.6321 12.4048 29.0007 12.6748 29.0011C13.4274 29.0024 14.1495 28.8187 14.7809 28.4891L24.553 24.4654C24.7388 24.4484 24.9087 24.3754 25.0446 24.2632C27.693 23.1732 27.5686 23.2534 27.7486 23.0653C30.4863 20.195 28.4353 15.4076 24.4686 15.4076Z" fill="#004EBF"/>
<path d="M23.297 10.6096C22.9437 10.9628 21.8369 10.9619 21.4845 10.6096C21.1306 10.2557 20.5568 10.2557 20.2029 10.6096C19.849 10.9635 19.849 11.5373 20.2029 11.8912C20.583 12.2713 21.1276 12.5296 21.7499 12.6346V13.5937C21.7499 14.0942 22.1557 14.5 22.6562 14.5C23.1567 14.5 23.5624 14.0942 23.5624 13.5937V12.5008C25.9408 11.6924 25.8727 8.50775 23.6988 7.60729L22.3072 7.03086C21.583 6.73095 21.4529 5.43764 22.9217 5.43764C23.3643 5.43764 23.6958 5.57097 23.8279 5.70311C24.1818 6.05699 24.7556 6.05705 25.1095 5.70311C25.4634 5.34916 25.4634 4.7754 25.1095 4.42152C24.7294 4.0414 24.1848 3.78307 23.5625 3.67806V2.71886C23.5625 2.21839 23.1568 1.81262 22.6562 1.81262C22.1557 1.81262 21.75 2.21839 21.75 2.71886V3.81179C19.3922 4.61318 19.4211 7.79714 21.6137 8.70531L23.0052 9.28173C23.5271 9.49793 23.7182 10.1872 23.297 10.6096Z" fill="#004EBF"/>
</g>
<defs>
<clipPath id="clip0">
<rect width="29" height="29" fill="white"/>
</clipPath>
</defs>
</svg>
