<svg width="19" height="19" viewBox="0 0 19 19" fill="none" xmlns="http://www.w3.org/2000/svg">
<g clip-path="url(#clip0_1840:631)">
<path d="M12.5957 9.59739L19.0011 13.6468V5.37701L12.5957 9.59739Z" fill="#004EBF"/>
<path d="M0 5.37701V13.6468L6.40538 9.59739L0 5.37701Z" fill="#004EBF"/>
<path d="M17.812 2.96875H1.18703C0.594469 2.96875 0.124219 3.4105 0.0351562 3.97931L9.49953 10.2149L18.9639 3.97931C18.8748 3.4105 18.4046 2.96875 17.812 2.96875Z" fill="#004EBF"/>
<path d="M11.5079 10.3146L9.82763 11.4214C9.72787 11.4867 9.61506 11.5187 9.50106 11.5187C9.38706 11.5187 9.27425 11.4867 9.1745 11.4214L7.49419 10.3134L0.0390625 15.029C0.1305 15.593 0.598375 16.0312 1.18856 16.0312H17.8136C18.4038 16.0312 18.8716 15.593 18.9631 15.029L11.5079 10.3146Z" fill="#004EBF"/>
</g>
<defs>
<clipPath id="clip0_1840:631">
<rect width="19" height="19" fill="white"/>
</clipPath>
</defs>
</svg>
