<svg width="41" height="33" viewBox="0 0 41 33" fill="none" xmlns="http://www.w3.org/2000/svg">
<g clip-path="url(#clip0_2623:753)">
<path d="M27.6739 28.8756L24.6009 28.8789V26.8125H16.4009V28.8885L13.3271 28.8918C12.7621 28.8924 12.3041 29.3532 12.3034 29.9224L12.3002 31.9675C12.2996 32.5379 12.7595 33.0006 13.3265 33L27.6739 32.9832C28.239 32.9826 28.697 32.5218 28.6976 31.9533L28.7002 29.9082C28.7008 29.3378 28.2409 28.875 27.6739 28.8756ZM37.4896 1.72348C37.3217 0.728965 36.4511 0 35.4306 0H5.56916C4.54865 0 3.67804 0.728965 3.5102 1.72348C-0.212475 23.7935 0.00277503 22.4348 0.00213441 22.6875C0.000212535 23.8038 0.917588 24.75 2.09057 24.75H38.9098C40.0777 24.75 40.9925 23.8116 40.9976 22.701C40.9989 22.4381 41.2123 23.7935 37.4896 1.72348ZM16.6456 4.125H24.3542L24.9801 10.3125H16.0197L16.6456 4.125ZM11.83 20.625H4.55441L5.77224 13.4062H12.5609L11.83 20.625ZM12.8736 10.3125H6.29371L7.33729 4.125H13.4995L12.8736 10.3125ZM14.9761 20.625L15.7064 13.4062H25.2934L26.0237 20.625H14.9761ZM27.5003 4.125H33.6625L34.7061 10.3125H28.1262L27.5003 4.125ZM29.1698 20.625L28.4395 13.4062H35.2282L36.446 20.625H29.1698Z" fill="#C8C8C8"/>
</g>
<defs>
<clipPath id="clip0_2623:753">
<rect width="41" height="33" fill="white"/>
</clipPath>
</defs>
</svg>
