<svg width="27" height="27" viewBox="0 0 27 27" fill="none" xmlns="http://www.w3.org/2000/svg">
<path d="M13.5 0C6.05623 0 0 6.05623 0 13.5C0 20.9438 6.05623 27 13.5 27C20.9438 27 27 20.9438 27 13.5C27 6.05623 20.9438 0 13.5 0ZM13.5 24.75C10.4353 24.75 7.65598 23.515 5.62502 21.5206V19.6875C5.62502 19.1524 5.86454 18.808 6.14139 18.4092C6.42647 17.9989 6.75 17.5337 6.75 16.875C6.75 15.8022 5.78153 15.6934 5.26078 15.6352C4.88832 15.5934 4.53679 15.5539 4.33519 15.3523C4.18247 15.1996 4.02975 14.9222 3.86828 14.6288C3.5476 14.0454 3.11291 13.2738 2.28535 12.8013C2.64916 6.92381 7.53242 2.25002 13.5 2.25002C13.8088 2.25002 14.1123 2.27185 14.4149 2.29637C14.3533 2.33682 14.2778 2.36429 14.2273 2.41481C14.118 2.52413 14.0581 2.67411 14.0625 2.82899C14.0675 2.98334 14.1356 3.12947 14.2509 3.23272C14.4531 3.41234 14.4921 3.50299 14.4998 3.50299C14.4871 3.52988 14.3839 3.70622 13.8082 3.99848C12.8579 4.48021 11.7603 5.46623 11.5972 6.49239C11.5225 6.9582 11.6576 7.39051 11.9773 7.71024C12.0828 7.81571 12.2256 7.87504 12.375 7.87504C13.1562 7.87504 13.7598 7.5861 14.3438 7.30703C14.9431 7.02079 15.5094 6.75 16.3125 6.75C18.5202 6.75 20.25 7.24438 20.25 7.87498C20.25 8.10622 20.178 8.1771 20.1506 8.20346C19.8743 8.47536 18.9333 8.4578 18.106 8.44515C17.8869 8.4413 17.6627 8.43745 17.4375 8.43745C16.674 8.43745 16.4372 8.32591 16.1631 8.19629C15.8439 8.04579 15.4825 7.87493 14.625 7.87493C13.6978 7.87493 11.9746 8.04247 10.8523 9.16471C9.93437 10.0821 10.0316 11.1796 10.0953 11.9053C10.1101 12.0723 10.125 12.2305 10.125 12.3749C10.125 13.4829 11.2572 14.0624 12.375 14.0624C14.0944 14.0624 15.5808 14.3832 15.75 14.6249C15.75 15.2545 15.9373 15.6846 16.0878 16.0295C16.2131 16.3179 16.3125 16.5453 16.3125 16.8749C16.3125 17.1298 16.2707 17.1842 16.1581 17.3292C15.9433 17.6083 15.75 17.912 15.75 18.5624C15.75 19.7462 16.8898 21.0448 17.0194 21.1893C17.1277 21.309 17.2804 21.3749 17.4375 21.3749C17.4841 21.3749 17.5309 21.3694 17.577 21.3574C17.9082 21.2722 20.8125 20.473 20.8125 18.5624C20.8125 17.9637 20.9987 17.8022 21.281 17.5572C21.5579 17.3165 21.9374 16.9875 21.9374 16.3124C21.9374 15.8614 22.7378 14.6974 23.4794 13.8773C23.5843 13.7614 23.6365 13.6065 23.6228 13.4505C23.6091 13.2945 23.531 13.1511 23.4075 13.0555C22.9702 12.7166 21.7628 11.613 21.3585 10.5424C21.5876 10.6622 21.8743 10.8572 22.1023 11.0851C22.2896 11.2736 22.5407 11.3636 22.8263 11.3521C23.2819 11.3261 23.8231 10.9662 24.336 10.5172C24.5983 11.4688 24.75 12.466 24.75 13.5C24.75 19.7034 19.7034 24.75 13.5 24.75Z" fill="#004EBF"/>
</svg>
