<svg width="34" height="40" viewBox="0 0 34 40" fill="none" xmlns="http://www.w3.org/2000/svg">
<path d="M31.6666 3.33339C27.1912 3.33339 19.5821 2.22506 17.8452 0.488185C17.6904 0.333412 17.5067 0.210639 17.3045 0.126875C17.1022 0.0431124 16.8855 0 16.6666 0C16.4478 0 16.231 0.0431124 16.0288 0.126875C15.8266 0.210639 15.6429 0.333412 15.4881 0.488185C13.7512 2.22506 6.14207 3.33339 1.66666 3.33339C1.22464 3.33339 0.800715 3.50898 0.488154 3.82154C0.175594 4.1341 0 4.55803 0 5.00005V23.3334C0 25.5784 2.55208 27.5167 7.06249 30.75C10.2237 33.0142 15 36.4375 15 38.3333C15 38.7754 15.1756 39.1993 15.4881 39.5118C15.8007 39.8244 16.2246 40 16.6666 40C17.1087 40 17.5326 39.8244 17.8451 39.5118C18.1577 39.1993 18.3333 38.7754 18.3333 38.3333C18.3333 36.4375 23.1095 33.0142 26.2708 30.75C30.7812 27.5167 33.3333 25.5784 33.3333 23.3334V5.00005C33.3333 4.55803 33.1577 4.1341 32.8451 3.82154C32.5326 3.50898 32.1086 3.33339 31.6666 3.33339ZM28.3333 22.0736C28.3332 22.3048 28.285 22.5335 28.1918 22.7451C28.0985 22.9567 27.9622 23.1466 27.7916 23.3027C26.762 24.245 24.795 25.6548 23.3587 26.684C21.4308 28.0656 19.4381 29.4933 17.7675 30.9631C17.4632 31.2308 17.0719 31.3784 16.6666 31.3784C16.2614 31.3784 15.8701 31.2308 15.5658 30.9631C13.8952 29.4933 11.9025 28.0656 9.97561 26.6848C8.53811 25.6548 6.57124 24.245 5.54166 23.3027C5.37104 23.1466 5.23477 22.9567 5.14151 22.7451C5.04826 22.5335 5.00007 22.3048 4.99999 22.0736V9.7015C5 9.28964 5.15251 8.89236 5.42811 8.5863C5.70371 8.28023 6.08288 8.08705 6.49249 8.04401C7.71561 7.91546 8.91103 7.75234 10.0456 7.55588C12.5081 7.13109 14.4602 6.60297 16.0131 5.94109C16.2197 5.85302 16.442 5.80761 16.6666 5.80761C16.8913 5.80761 17.1136 5.85302 17.3202 5.94109C18.8731 6.60297 20.8252 7.13109 23.2879 7.55588C24.4223 7.7513 25.6177 7.91546 26.8408 8.04401C27.2504 8.08705 27.6296 8.28023 27.9052 8.5863C28.1808 8.89236 28.3333 9.28964 28.3333 9.7015V22.0736Z" fill="#3889FF"/>
<path d="M14.6537 19.4324L10.9245 16.9467L9.07617 19.7201L14.0762 23.0534C14.4231 23.2848 14.8441 23.3777 15.2562 23.3138C15.6682 23.2499 16.0414 23.0339 16.302 22.7084L22.9686 14.3751L20.3657 12.2917L14.6537 19.4324Z" fill="#3889FF"/>
</svg>
