<svg width="26" height="26" viewBox="0 0 26 26" fill="none" xmlns="http://www.w3.org/2000/svg">
<path d="M8.42969 7.66797C10.1902 7.66797 11.7826 8.57132 12.6953 9.81606L14.8585 7.63742C13.5647 5.95509 11.0747 4.62109 8.42969 4.62109C3.79848 4.62109 0 8.36879 0 13C0 17.6312 3.79848 21.3789 8.42969 21.3789C12.2688 21.3789 15.4984 18.8043 16.4886 15.2852C16.7019 14.5538 16.8086 13.7921 16.8086 13V12.2383H9.19141V15.2846H13.2285C12.3906 17.0823 10.5472 18.332 8.42969 18.332C5.48953 18.332 3.04688 15.9402 3.04688 13C3.04688 10.0598 5.48953 7.66797 8.42969 7.66797Z" fill="#004EBF"/>
<path d="M23.6641 9.19141H20.6172V11.4766H18.332V14.5234H20.6172V16.8086H23.6641V14.5234H26V11.4766H23.6641V9.19141Z" fill="#004EBF"/>
</svg>
