<svg width="37" height="49" viewBox="0 0 37 49" fill="none" xmlns="http://www.w3.org/2000/svg">
<path d="M18.4998 0C8.71468 0 0.753906 7.96078 0.753906 17.7458C0.753906 29.8894 16.6348 47.7169 17.3109 48.4699C17.946 49.1772 19.0548 49.176 19.6888 48.4699C20.3649 47.7169 36.2458 29.8894 36.2458 17.7458C36.2456 7.96078 28.2849 0 18.4998 0ZM18.4998 26.6743C13.5767 26.6743 9.57151 22.669 9.57151 17.7458C9.57151 12.8227 13.5768 8.81751 18.4998 8.81751C23.4229 8.81751 27.4281 12.8228 27.4281 17.7459C27.4281 22.6691 23.4229 26.6743 18.4998 26.6743Z" fill="#004EBF"/>
</svg>
