<svg width="30" height="30" viewBox="0 0 30 30" fill="none" xmlns="http://www.w3.org/2000/svg">
<path d="M10.8981 0H2.28501C1.02552 0 0.000976562 1.02454 0.000976562 2.28403V10.8971C0.000976562 12.1566 1.02552 13.1812 2.28501 13.1812H10.8981C12.1576 13.1812 13.1821 12.1566 13.1821 10.8971V2.28403C13.1819 1.02454 12.1576 0 10.8981 0Z" fill="white"/>
<path d="M27.7155 0H19.1024C17.8429 0 16.8184 1.02454 16.8184 2.28403V10.8971C16.8184 12.1566 17.8429 13.1812 19.1024 13.1812H27.7155C28.975 13.1812 29.9995 12.1566 29.9995 10.8971V2.28403C29.9995 1.02454 28.975 0 27.7155 0Z" fill="white"/>
<path d="M10.8971 16.8188H2.28403C1.02454 16.8188 0 17.8433 0 19.1028V27.7159C0 28.9754 1.02454 29.9999 2.28403 29.9999H10.8971C12.1566 29.9999 13.1812 28.9754 13.1812 27.7159V19.1028C13.181 17.8433 12.1566 16.8188 10.8971 16.8188Z" fill="white"/>
<path d="M27.7155 16.8188H19.1024C17.8429 16.8188 16.8184 17.8434 16.8184 19.1029V27.716C16.8184 28.9755 17.8429 30 19.1024 30H27.7155C28.975 29.9999 29.9995 28.9754 29.9995 27.7159V19.1028C29.9995 17.8433 28.975 16.8188 27.7155 16.8188Z" fill="white"/>
</svg>
