<svg width="53" height="53" viewBox="0 0 53 53" fill="none" xmlns="http://www.w3.org/2000/svg">
<path d="M28.7218 6.82111C28.3344 6.82111 28.0195 7.13593 28.0195 7.52389C28.0195 7.55993 28.0349 7.5912 28.0402 7.62618H28.0195V24.2883C28.0195 24.6763 28.3344 24.9911 28.7218 24.9911H45.3834V24.9704C45.4184 24.9757 45.4496 24.9911 45.4862 24.9911C45.8736 24.9911 46.1885 24.6763 46.1885 24.2883C46.0888 14.6847 38.3254 6.92128 28.7218 6.82111Z" fill="#C8C8C8"/>
<path d="M42.1266 28.3338C42.1266 27.9459 41.8123 27.6311 41.4243 27.6311H26.1078C25.9216 27.6309 25.7429 27.5568 25.6112 27.425C25.4796 27.2932 25.4056 27.1146 25.4056 26.9283V11.668H25.3849C25.3902 11.633 25.4056 11.6017 25.4056 11.5657C25.4056 11.1772 25.0908 10.8629 24.7028 10.8629C24.6859 10.8629 24.6721 10.8714 24.6556 10.8725V10.8677C24.5931 10.8672 24.5311 10.8629 24.4686 10.8629C14.7166 10.8629 6.81055 18.7689 6.81055 28.5209C6.81055 38.2729 14.7166 46.1789 24.4686 46.1789C34.2206 46.1789 42.1266 38.2729 42.1266 28.5209C42.1266 28.4647 42.1239 28.4091 42.1229 28.3524C42.1229 28.3455 42.1266 28.3402 42.1266 28.3338Z" fill="#C8C8C8"/>
</svg>
