<svg width="15" height="18" viewBox="0 0 15 18" fill="none" xmlns="http://www.w3.org/2000/svg">
<path d="M14.7916 14.2614L12.6767 16.6521C12.3646 17.0169 11.9508 17.1405 11.5478 17.141C9.76565 17.0802 8.08113 16.0826 6.69803 15.0583C4.42775 13.1761 2.34468 10.8423 1.0373 8.02208C0.535877 6.83945 -0.0524727 5.3305 0.00373975 4.01047C0.00875225 3.5139 0.126177 3.02655 0.433065 2.70647L2.54789 0.29769C2.98704 -0.127982 3.41173 0.0191935 3.69275 0.515021L5.39414 4.19159C5.57321 4.62715 5.47049 5.09383 5.20331 5.40506L4.42416 6.2925C4.37606 6.36758 4.34544 6.45305 4.34466 6.54607C4.64344 7.86401 5.54858 9.07875 6.34818 9.91473C7.14776 10.7507 8.00724 11.8833 9.12289 12.1514C9.26079 12.1953 9.4297 12.2107 9.52836 12.1061L10.4347 11.0557C10.7472 10.7858 11.1983 10.6539 11.5319 10.8746H11.5478L14.6166 12.9393C15.0672 13.2611 15.1141 13.883 14.7916 14.2614Z" fill="white"/>
</svg>
