<svg width="31" height="36" viewBox="0 0 31 36" fill="none" xmlns="http://www.w3.org/2000/svg">
<path fill-rule="evenodd" clip-rule="evenodd" d="M15.5 0C13.9721 0 11.4191 0.586785 9.01658 1.24C6.55872 1.90428 4.08094 2.69035 2.62394 3.16643C2.01477 3.3676 1.4747 3.73653 1.06578 4.23083C0.656864 4.72514 0.395676 5.32478 0.312226 5.96085C-1.00749 15.8742 2.05487 23.2212 5.77044 28.0815C7.34608 30.1607 9.22478 31.9916 11.3438 33.5132C12.1985 34.1177 12.9912 34.5805 13.6644 34.8971C14.2844 35.1894 14.9509 35.4285 15.5 35.4285C16.0491 35.4285 16.7134 35.1894 17.3356 34.8971C18.1471 34.5027 18.9235 34.0397 19.6562 33.5132C21.7753 31.9917 23.654 30.1607 25.2296 28.0815C28.9451 23.2212 32.0075 15.8742 30.6878 5.96085C30.6045 5.32447 30.3434 4.72449 29.9344 4.2298C29.5255 3.73511 28.9854 3.36578 28.3761 3.16421C26.261 2.47073 24.1295 1.8284 21.9834 1.23778C19.5809 0.589 17.0279 0 15.5 0ZM20.2519 11.3947C20.4597 11.1868 20.7417 11.07 21.0357 11.07C21.3297 11.07 21.6117 11.1868 21.8196 11.3947C22.0275 11.6026 22.1443 11.8846 22.1443 12.1786C22.1443 12.4726 22.0275 12.7545 21.8196 12.9624L15.1767 19.6053C15.0739 19.7084 14.9517 19.7902 14.8172 19.846C14.6827 19.9018 14.5385 19.9305 14.3929 19.9305C14.2472 19.9305 14.103 19.9018 13.9685 19.846C13.834 19.7902 13.7118 19.7084 13.609 19.6053L10.2876 16.2838C10.1846 16.1809 10.103 16.0587 10.0473 15.9242C9.99156 15.7897 9.96289 15.6456 9.96289 15.5C9.96289 15.3544 9.99156 15.2103 10.0473 15.0758C10.103 14.9413 10.1846 14.8191 10.2876 14.7161C10.3905 14.6132 10.5127 14.5315 10.6472 14.4758C10.7817 14.4201 10.9259 14.3914 11.0714 14.3914C11.217 14.3914 11.3612 14.4201 11.4957 14.4758C11.6301 14.5315 11.7524 14.6132 11.8553 14.7161L14.3929 17.2559L20.2519 11.3947Z" fill="#C8C8C8"/>
</svg>
