<svg width="29" height="29" viewBox="0 0 29 29" fill="none" xmlns="http://www.w3.org/2000/svg">
<path d="M4.74614 14.5052C4.74614 10.4138 7.27874 6.90318 10.8583 5.45745L12.6848 1.7887C6.45834 2.67325 1.6543 8.03827 1.6543 14.5052C1.6543 20.3889 5.63089 25.361 11.0374 26.876L11.3887 23.7499C7.53131 22.4485 4.74614 18.796 4.74614 14.5052Z" fill="#004EBF"/>
<path d="M27.3448 14.5053C27.3448 8.62276 23.37 3.65166 17.9653 2.1355L17.6061 5.25922C21.4657 6.55944 24.253 10.2129 24.253 14.5053C24.253 18.5729 21.7498 22.0663 18.2033 23.5275L16.3262 27.2201C22.5469 26.3305 27.3448 20.9681 27.3448 14.5053Z" fill="#004EBF"/>
<path d="M21.8522 12.9485C21.974 12.709 21.9625 12.4459 21.8219 12.2169C21.6814 11.9878 21.4319 11.8965 21.1631 11.8965H15.2866L16.5517 0.898566C16.5948 0.525709 16.3636 0.139423 16.0036 0.0325609C15.9293 0.0105316 15.8541 0 15.7798 0C15.4943 0 15.2246 0.162418 15.0917 0.429186L7.14445 16.3981C7.02522 16.6377 7.03836 16.9566 7.17923 17.1842C7.3202 17.4118 7.56871 17.5971 7.83644 17.5971H13.6355L12.4467 28.1811C12.4051 28.5526 12.6352 28.8649 12.9932 28.972C13.0668 28.994 13.1413 29 13.2148 29C13.4996 29 13.7694 28.8418 13.904 28.577L21.8522 12.9485Z" fill="#004EBF"/>
</svg>
