<svg width="19" height="23" viewBox="0 0 19 23" fill="none" xmlns="http://www.w3.org/2000/svg">
<path d="M3.7714 1.04742C4.94009 0.134612 7.1869 -0.125575 8.11122 0.0526745C9.03697 0.229487 9.51997 0.742675 9.52572 1.36942L9.5789 9.34324C9.58321 9.96999 9.25547 10.545 8.85009 10.6226C8.44328 10.6988 7.84384 10.3265 7.51321 9.79317L3.29703 2.95499C2.97072 2.42167 2.31234 2.18592 3.7714 1.04742ZM2.37128 16.213L6.61621 14.7224C7.20703 14.5139 7.73747 13.9346 7.7964 13.4315C7.8539 12.9284 7.42409 12.3304 6.84047 12.1018L2.3569 10.338C1.77328 10.108 1.09909 10.6514 0.922278 11.5397C0.922278 11.5397 0.815903 14.6347 0.922278 15.2744C1.03009 15.9155 1.77903 16.4229 2.37128 16.213ZM9.77584 16.9591C9.78734 16.3309 9.45096 15.789 9.02547 15.7502C8.59996 15.7114 7.92434 16.0707 7.5204 16.5494L4.55915 20.0742C4.15665 20.5529 4.35647 21.677 4.9444 21.8912L8.04078 22.9578C8.63015 23.1705 9.66803 22.5409 9.67953 21.9142L9.77584 16.9591ZM17.1344 16.1383L13.4213 15.0789C12.819 14.9064 12.1362 14.9236 11.9048 15.1177C11.6733 15.3089 11.7308 15.9169 12.0342 16.466L14.3773 20.7225C14.6792 21.2702 15.8924 21.1767 16.2259 20.6449C16.2259 20.6449 17.6375 18.5777 17.8977 17.8015C18.1579 17.0238 17.7367 16.3094 17.1344 16.1383ZM18.0386 10.1525C17.8718 9.61349 16.7103 8.02649 16.0822 7.48599C15.454 6.94405 14.7352 7.01161 14.3313 7.48742L11.9378 10.3179C11.5325 10.7937 11.4232 11.5498 11.6935 11.9925C11.9637 12.4367 12.6839 12.6883 13.2963 12.5517L17.4348 11.7899C18.1823 11.6116 18.2097 10.6916 18.0386 10.1525Z" fill="#9F2218"/>
</svg>
