<svg width="46" height="46" viewBox="0 0 46 46" fill="none" xmlns="http://www.w3.org/2000/svg">
<path d="M42.1922 27.0261L39.5189 23.462C39.5228 23.147 39.5196 22.8112 39.5149 22.5431L42.191 18.9752C42.322 18.8006 42.4115 18.5984 42.4527 18.3841C42.4939 18.1697 42.4858 17.9488 42.4289 17.7381C41.9802 16.0752 41.3189 14.4772 40.4613 12.9835C40.3525 12.7941 40.202 12.632 40.0212 12.5095C39.8404 12.387 39.6341 12.3073 39.4179 12.2765L35.0179 11.6481C34.8025 11.4201 34.5807 11.1983 34.3525 10.9825L33.7243 6.58431C33.6934 6.36823 33.6137 6.16202 33.4913 5.98132C33.3688 5.80062 33.2068 5.65018 33.0176 5.54141C31.5245 4.68287 29.9269 4.02053 28.2643 3.57077C28.0535 3.51381 27.8325 3.50562 27.618 3.54681C27.4036 3.588 27.2013 3.67749 27.0266 3.8085L23.471 6.4756C23.1574 6.46692 22.8436 6.46692 22.5299 6.4756L18.9757 3.80976C18.8011 3.67881 18.5989 3.58934 18.3846 3.54812C18.1702 3.5069 17.9493 3.51502 17.7386 3.57185C16.0757 4.02054 14.4777 4.68186 12.984 5.53943C12.7946 5.64822 12.6325 5.79872 12.51 5.97952C12.3874 6.16032 12.3077 6.36666 12.2768 6.58288L11.6486 10.9829C11.4208 11.1983 11.1989 11.4201 10.983 11.6484L6.58483 12.2763C6.36877 12.3071 6.16256 12.3868 5.98187 12.5092C5.80117 12.6316 5.65072 12.7936 5.54193 12.9828C4.68336 14.476 4.02102 16.0737 3.57129 17.7364C3.51431 17.9472 3.5061 18.1682 3.54729 18.3826C3.58848 18.5971 3.67799 18.7993 3.80902 18.9739L6.48241 22.538C6.47846 22.853 6.48169 23.1889 6.48636 23.457L3.81028 27.025C3.6793 27.1996 3.5898 27.4018 3.54858 27.6161C3.50736 27.8305 3.51549 28.0514 3.57237 28.2622C4.02108 29.925 4.68239 31.5231 5.53995 33.0167C5.64874 33.2061 5.79924 33.3682 5.98004 33.4907C6.16084 33.6132 6.36718 33.6929 6.5834 33.7238L10.9834 34.3521C11.1988 34.5801 11.4206 34.802 11.6488 35.0177L12.277 39.4157C12.3078 39.6319 12.3875 39.8381 12.51 40.0188C12.6324 40.1996 12.7944 40.35 12.9837 40.4588C14.4768 41.3174 16.0744 41.9797 17.737 42.4295C17.9478 42.4864 18.1688 42.4947 18.3832 42.4535C18.5977 42.4123 18.8 42.3228 18.9746 42.1917L22.5303 39.5246C22.8437 39.5336 23.1579 39.5336 23.4713 39.5246L27.0255 42.1905C27.2002 42.3215 27.4023 42.411 27.6167 42.4522C27.831 42.4934 28.052 42.4853 28.2627 42.4284C29.9255 41.9797 31.5236 41.3184 33.0172 40.4608C33.2066 40.352 33.3687 40.2015 33.4913 40.0207C33.6138 39.8399 33.6936 39.6336 33.7245 39.4174L34.3541 35.0069C34.5729 34.7925 34.7886 34.5749 35.0012 34.3543L39.4163 33.7236C39.6323 33.6928 39.8386 33.6132 40.0193 33.4908C40.2 33.3684 40.3505 33.2064 40.4593 33.0172C41.3179 31.524 41.9803 29.9263 42.43 28.2636C42.487 28.0528 42.4952 27.8318 42.454 27.6174C42.4128 27.403 42.3233 27.2008 42.1922 27.0261ZM23.0005 30.9063C21.4368 30.9063 19.9082 30.4426 18.6081 29.5738C17.3079 28.7051 16.2945 27.4703 15.6961 26.0256C15.0977 24.5809 14.9411 22.9913 15.2462 21.4576C15.5513 19.9239 16.3043 18.5152 17.41 17.4095C18.5157 16.3038 19.9244 15.5508 21.4581 15.2457C22.9918 14.9406 24.5815 15.0972 26.0261 15.6956C27.4708 16.294 28.7056 17.3074 29.5744 18.6075C30.4431 19.9077 30.9068 21.4363 30.9068 23C30.9044 25.0962 30.0707 27.1058 28.5885 28.588C27.1063 30.0702 25.0967 30.9039 23.0005 30.9063Z" fill="#C8C8C8"/>
</svg>
