<svg width="18" height="18" viewBox="0 0 18 18" fill="none" xmlns="http://www.w3.org/2000/svg">
<g clip-path="url(#clip0_1840:625)">
<path d="M5.31641 12.5045L10.0389 15.1283V3.99286L5.31641 1.36926V12.5045Z" fill="#004EBF"/>
<path d="M12.8109 13.0992C12.8582 12.3817 13.1635 11.7055 13.6706 11.1957C14.1227 10.7395 14.7187 10.4537 15.3574 10.3869V1.91217L10.6348 4.01108V15.176L12.9444 14.1495C12.8333 13.8112 12.788 13.4546 12.8109 13.0992Z" fill="#004EBF"/>
<path d="M0 14.5852L4.72267 12.4863V1.32153L0 3.42044V14.5852Z" fill="#004EBF"/>
<path d="M16.6738 13.0849C16.6738 12.5035 16.2177 12.0322 15.6552 12.0322C15.0926 12.0322 14.6367 12.5035 14.6367 13.0849C14.6367 13.6663 15.0926 14.1378 15.6552 14.1378C16.2177 14.1378 16.6738 13.6663 16.6738 13.0849Z" fill="#004EBF"/>
<path d="M17.9966 13.1332C17.9577 12.5383 17.7047 11.9779 17.2844 11.5551C16.8536 11.1229 16.2682 10.8799 15.6578 10.8799C15.0476 10.8799 14.4622 11.1229 14.0314 11.5551C13.6111 11.9779 13.3582 12.5383 13.319 13.1332C13.2986 13.4559 13.3464 13.7795 13.4591 14.0827C13.5795 14.4013 13.7633 14.6921 13.9996 14.9375L15.658 16.704L17.3164 14.9375C17.5527 14.6921 17.7365 14.4013 17.8569 14.0827C17.9694 13.7795 18.0172 13.4559 17.9966 13.1332ZM15.658 14.647C14.8155 14.647 14.1302 13.9463 14.1302 13.0849C14.1302 12.2237 14.8155 11.523 15.658 11.523C16.5003 11.523 17.1858 12.2237 17.1858 13.0849C17.1858 13.9463 16.5005 14.647 15.658 14.647Z" fill="#004EBF"/>
</g>
<defs>
<clipPath id="clip0_1840:625">
<rect width="18" height="18" fill="white"/>
</clipPath>
</defs>
</svg>
