<svg width="13" height="23" viewBox="0 0 13 23" fill="none" xmlns="http://www.w3.org/2000/svg">
<path d="M12.5739 10.6777L2.7836 0.887593C2.55717 0.660977 2.25489 0.536133 1.93259 0.536133C1.61028 0.536133 1.30801 0.660977 1.08157 0.887593L0.360583 1.6084C-0.108568 2.07809 -0.108568 2.84146 0.360583 3.31044L8.58172 11.5316L0.351461 19.7618C0.125023 19.9884 0 20.2905 0 20.6127C0 20.9352 0.125023 21.2372 0.351461 21.464L1.07245 22.1847C1.29906 22.4113 1.60116 22.5361 1.92346 22.5361C2.24577 22.5361 2.54804 22.4113 2.77448 22.1847L12.5739 12.3856C12.8009 12.1583 12.9255 11.8548 12.9248 11.5321C12.9255 11.2082 12.8009 10.9048 12.5739 10.6777Z" fill="black"/>
</svg>
