<svg width="306" height="49" viewBox="0 0 306 49" fill="none" xmlns="http://www.w3.org/2000/svg">
<path d="M28.1713 0V6.50067H17.336V30.3373H10.8353V6.50067H0V0H28.1713Z" fill="white"/>
<path d="M88.7542 18.4203C88.0359 18.4203 87.3471 18.7056 86.8392 19.2135C86.3313 19.7214 86.046 20.4102 86.046 21.1285C86.046 21.8467 86.3313 22.5356 86.8392 23.0434C87.3471 23.5513 88.0359 23.8367 88.7542 23.8367H107.717V30.3373H88.7542C86.9968 30.3375 85.276 29.8349 83.795 28.8887C82.3141 27.9425 81.1348 26.5923 80.3964 24.9976C79.6581 23.4028 79.3914 21.63 79.628 19.8886C79.8646 18.1472 80.5946 16.5099 81.7317 15.1699C80.595 13.8299 79.8654 12.1926 79.6288 10.4514C79.3923 8.71021 79.6587 6.93767 80.3967 5.34294C81.1346 3.7482 82.3134 2.39781 83.7937 1.45111C85.2741 0.504417 86.9944 0.00090757 88.7516 0H107.714V6.50067H88.7516C88.3888 6.48955 88.0275 6.55141 87.689 6.68257C87.3506 6.81373 87.0419 7.01151 86.7814 7.26421C86.5208 7.5169 86.3137 7.81936 86.1722 8.15363C86.0308 8.4879 85.9578 8.84717 85.9578 9.21013C85.9578 9.5731 86.0308 9.93237 86.1722 10.2666C86.3137 10.6009 86.5208 10.9034 86.7814 11.1561C87.0419 11.4088 87.3506 11.6065 87.689 11.7377C88.0275 11.8689 88.3888 11.9307 88.7516 11.9196H107.714V18.4203H88.7542Z" fill="white"/>
<path d="M110.967 0H117.468V23.8367H139.139V30.3373H110.967V0Z" fill="white"/>
<path d="M151.598 18.4203C150.879 18.4203 150.191 18.7056 149.683 19.2135C149.175 19.7214 148.89 20.4102 148.89 21.1285C148.89 21.8467 149.175 22.5356 149.683 23.0434C150.191 23.5513 150.879 23.8367 151.598 23.8367H170.563V30.3373H151.6C149.843 30.337 148.123 29.834 146.642 28.8877C145.162 27.9413 143.983 26.5911 143.245 24.9964C142.506 23.4017 142.24 21.6292 142.477 19.888C142.713 18.1468 143.443 16.5097 144.58 15.1699C143.444 13.8299 142.714 12.1926 142.477 10.4514C142.241 8.71021 142.507 6.93767 143.245 5.34294C143.983 3.7482 145.162 2.39781 146.642 1.45111C148.123 0.504417 149.843 0.00090757 151.6 0H170.563V6.50067H151.6C151.237 6.48955 150.876 6.55141 150.538 6.68257C150.199 6.81373 149.891 7.01151 149.63 7.26421C149.369 7.5169 149.162 7.81936 149.021 8.15363C148.879 8.4879 148.806 8.84717 148.806 9.21013C148.806 9.5731 148.879 9.93237 149.021 10.2666C149.162 10.6009 149.369 10.9034 149.63 11.1561C149.891 11.4088 150.199 11.6065 150.538 11.7377C150.876 11.8689 151.237 11.9307 151.6 11.9196H170.563V18.4203H151.598Z" fill="white"/>
<path d="M187.896 0H201.982V6.50067H187.896C185.8 6.50067 184.013 7.3491 182.533 9.04596C181.054 10.7428 180.313 12.7875 180.311 15.1801C180.311 17.5778 181.052 19.6216 182.533 21.3117C184.015 23.0018 185.802 23.8502 187.896 23.857H201.982V30.3577H187.896C184.01 30.3577 180.691 28.8772 177.939 25.9162C175.187 22.9551 173.81 19.3798 173.81 15.1903C173.81 11.0007 175.187 7.42461 177.939 4.46189C180.691 1.49917 184.01 0.011878 187.896 0Z" fill="white"/>
<path d="M233.406 0V6.50067H222.571V30.3373H216.067V6.50067H205.232V0H233.406Z" fill="white"/>
<path d="M268.078 0H274.579V30.3373H268.078V0Z" fill="white"/>
<path d="M291.914 0H306V6.50067H291.914C289.819 6.50067 288.031 7.3491 286.551 9.04596C285.072 10.7428 284.331 12.7875 284.329 15.1801C284.329 17.5778 285.07 19.6216 286.551 21.3117C288.033 23.0018 289.82 23.8502 291.914 23.857H306V30.3577H291.914C288.028 30.3577 284.709 28.8772 281.957 25.9162C279.205 22.9551 277.829 19.3798 277.829 15.1903C277.829 11.0007 279.205 7.42461 281.957 4.46189C284.709 1.49917 288.028 0.011878 291.914 0Z" fill="white"/>
<path d="M25.2391 30.3374C24.7068 30.3251 24.1877 30.1686 23.7374 29.8843C23.2048 29.5614 22.7481 29.1273 22.3986 28.6117C22.0179 28.0745 21.7575 27.4616 21.635 26.8147C21.5467 26.3985 21.5492 25.9682 21.6423 25.5531C21.7354 25.138 21.917 24.7479 22.1746 24.4094C22.704 23.6865 23.5525 22.9747 24.7199 22.2739C24.6076 21.9735 24.5132 21.6667 24.4374 21.355C24.3015 20.7055 24.3215 20.0329 24.4959 19.3926C24.6507 18.8146 24.9363 18.2798 25.3308 17.8298C25.693 17.4168 26.1333 17.0795 26.6263 16.8372C27.0702 16.6163 27.5584 16.4988 28.0542 16.4935C28.5538 16.4786 29.046 16.6171 29.4643 16.8906C29.6446 17.0038 29.8001 17.1523 29.9213 17.3274C30.0424 17.5024 30.1269 17.7001 30.1694 17.9087C30.2844 18.4095 30.2363 18.9339 30.0319 19.4053C29.8264 19.8536 29.533 20.2561 29.1691 20.5889C28.7274 20.9976 28.2607 21.3784 27.7717 21.7292C27.2016 22.1314 26.858 22.3859 26.7409 22.4928C27.1691 23.4242 27.6803 24.3152 28.268 25.1552C28.7151 24.8183 29.1292 24.4399 29.5051 24.0251C29.7598 23.732 29.9961 23.4234 30.2127 23.1011C30.3985 22.8186 30.5333 22.6786 30.6148 22.6786C30.6962 22.6786 30.7446 22.7549 30.8133 22.9051C30.8878 23.0673 30.9408 23.2384 30.9711 23.4142C31.0526 23.8053 31.0526 24.2091 30.9711 24.6003C30.8849 24.9911 30.7408 25.3669 30.5435 25.7151C30.3057 26.1316 30.0359 26.529 29.7367 26.9038L30.5614 27.647C30.627 27.5724 30.6874 27.4933 30.7421 27.4103C30.7895 27.3333 30.8449 27.2617 30.9075 27.1965C30.9473 27.1605 30.999 27.1405 31.0526 27.1405C31.086 27.1404 31.1191 27.1477 31.1494 27.1617C31.1798 27.1758 31.2067 27.1963 31.2282 27.2219C31.2751 27.2754 31.3067 27.3404 31.3198 27.4103C31.3758 27.6903 31.2681 28.1628 30.9966 28.828C30.7251 29.4932 30.4595 29.8258 30.1999 29.8258C30.0406 29.8158 29.8884 29.7562 29.7647 29.6552C29.5567 29.4888 29.3627 29.3058 29.1843 29.108C28.9476 28.8535 28.7567 28.6447 28.6066 28.4717C28.0407 28.9962 27.4243 29.4635 26.7663 29.8665C26.3081 30.1562 25.781 30.3187 25.2391 30.3374ZM25.3308 23.6382C24.9089 23.9713 24.5271 24.3523 24.193 24.7734C23.9046 25.134 23.6665 25.5321 23.4854 25.9569C23.3406 26.2528 23.2849 26.5844 23.3251 26.9114C23.4218 27.4205 23.7018 27.675 24.165 27.675C24.6218 27.6448 25.0685 27.5273 25.4809 27.3288C26.0445 27.088 26.566 26.7589 27.0259 26.354C26.5814 25.6583 26.0163 24.753 25.3308 23.6382ZM26.1249 20.5507L26.2063 20.9758C26.9732 20.5247 27.6414 19.924 28.1713 19.2093C28.5955 18.59 28.7729 18.0979 28.7033 17.7331C28.6975 17.6664 28.6787 17.6014 28.6478 17.542C28.6169 17.4826 28.5745 17.4299 28.5232 17.3869C28.4719 17.3438 28.4126 17.3113 28.3488 17.2913C28.2849 17.2712 28.2177 17.2639 28.151 17.2698C27.7744 17.3159 27.4272 17.4967 27.1736 17.7789C26.7929 18.1296 26.494 18.5597 26.298 19.0388C26.089 19.5138 26.0287 20.0408 26.1249 20.5507Z" fill="white"/>
<path d="M248.367 39.4545V40.2359C247.537 41.0504 246.858 41.6833 246.331 42.1347C245.879 42.5339 245.386 42.8853 244.862 43.1833C244.457 43.4173 243.999 43.5451 243.531 43.555C243.311 43.5516 243.094 43.5049 242.892 43.4175C242.69 43.3302 242.508 43.2039 242.355 43.0459C241.975 42.6746 241.687 42.2196 241.515 41.7173C241.312 41.1595 241.209 40.5699 241.212 39.9763C241.203 39.4847 241.324 38.9994 241.561 38.5687C241.941 37.9807 242.395 37.4442 242.912 36.9728C243.581 36.2954 244.321 35.692 245.119 35.1733C245.798 34.7508 246.332 34.5395 246.72 34.5395C246.852 34.5367 246.983 34.5611 247.105 34.611C247.227 34.6609 247.338 34.7353 247.43 34.8297C247.526 34.9255 247.602 35.0399 247.652 35.166C247.703 35.292 247.727 35.427 247.723 35.5627C247.679 35.9415 247.547 36.3048 247.339 36.6241C247.101 37.0556 246.811 37.4565 246.476 37.8179C246.158 38.1538 245.906 38.3269 245.712 38.3269C245.519 38.3269 245.409 38.2175 245.409 38.0011C245.409 37.9375 245.422 37.879 245.427 37.8255C245.432 37.772 245.427 37.716 245.427 37.6626C245.427 37.5684 245.394 37.5175 245.328 37.5048C245.24 37.5014 245.154 37.5325 245.089 37.5913C244.313 38.136 243.781 38.5187 243.493 38.7393C243.237 38.9307 243.008 39.1559 242.813 39.4087C242.653 39.611 242.563 39.8606 242.559 40.1188C242.551 40.3256 242.586 40.5318 242.662 40.7242C242.738 40.9167 242.854 41.091 243.001 41.2362C243.155 41.3817 243.336 41.4949 243.534 41.5692C243.732 41.6436 243.943 41.6774 244.154 41.6689C244.78 41.6274 245.385 41.4334 245.918 41.1038C246.776 40.6181 247.595 40.0667 248.367 39.4545Z" fill="white"/>
<path d="M255.809 39.4087V40.1901C255.439 40.5514 255.024 40.8644 254.575 41.1216C254.151 41.2941 253.691 41.358 253.236 41.3075C252.218 42.4953 251.329 43.0892 250.569 43.0892C250.134 43.0886 249.713 42.9355 249.38 42.6565C249.003 42.3405 248.709 41.9367 248.525 41.4805C248.305 40.9535 248.196 40.3869 248.204 39.8159C248.233 39.2306 248.408 38.6619 248.713 38.1615C249.053 37.5384 249.481 36.9681 249.986 36.4689C250.481 35.9643 251.048 35.5354 251.668 35.1962C252.174 34.8993 252.746 34.7331 253.333 34.7126C253.63 34.6982 253.926 34.7558 254.196 34.8806C254.289 34.9195 254.368 34.9853 254.424 35.0697C254.48 35.154 254.509 35.253 254.509 35.354C254.489 35.5566 254.399 35.7458 254.254 35.8885C254.486 35.9167 254.701 36.0258 254.86 36.1965C254.992 36.4365 255.048 36.7105 255.023 36.983C255.007 37.4629 254.921 37.9378 254.768 38.3931C254.597 38.9528 254.357 39.4889 254.053 39.989L254.262 40.1977H254.437C254.573 40.1968 254.707 40.1628 254.827 40.0985C254.946 40.0374 255.061 39.9677 255.17 39.8897L255.809 39.4087ZM253.409 36.3543C252.766 36.7412 252.215 37.0925 251.757 37.4081C251.339 37.6888 250.949 38.0084 250.591 38.3626C250.306 38.633 250.088 38.9658 249.953 39.3349C249.757 40.2054 249.66 40.6737 249.66 40.7449C249.66 41.254 250.017 41.5085 250.731 41.5085C251.071 41.5085 251.63 41.2209 252.409 40.6457C252.282 40.3105 252.214 39.9555 252.21 39.597C252.216 39.0835 252.319 38.5757 252.513 38.1004C252.765 37.4932 253.065 36.9068 253.409 36.3467V36.3543Z" fill="white"/>
<path d="M261.109 41.0275C262.178 40.0806 263.097 39.256 263.868 38.5535C264.638 37.851 265.241 37.2978 265.677 36.8939C266.118 36.4892 266.502 36.1481 266.838 35.8758C267.017 35.6909 267.236 35.5482 267.477 35.4584C267.655 35.4584 267.826 35.634 267.986 36.0107C268.129 36.2926 268.215 36.5995 268.241 36.9143C268.241 37.0594 267.986 37.4081 267.5 37.9553C267.014 38.5026 266.637 38.9403 266.393 39.2661C266.162 39.5559 266.033 39.9138 266.026 40.2843C266.022 40.3794 266.039 40.4743 266.075 40.5622C266.112 40.6502 266.167 40.7291 266.237 40.7933C266.305 40.8577 266.385 40.9079 266.473 40.9412C266.56 40.9744 266.653 40.9899 266.747 40.9868C267.046 40.9569 267.329 40.8351 267.556 40.6381C267.872 40.4039 268.365 39.989 269.042 39.3909V40.2181C268.364 40.8544 267.75 41.4033 267.202 41.8649C266.755 42.2535 266.274 42.6003 265.764 42.9008C265.458 43.0973 265.108 43.2153 264.746 43.2444C264.631 43.2472 264.518 43.2242 264.413 43.177C264.309 43.1299 264.216 43.0598 264.143 42.9721C263.973 42.786 263.882 42.5416 263.888 42.29C263.891 42.0168 263.938 41.746 264.028 41.4882C264.148 41.1554 264.293 40.8321 264.461 40.521C264.654 40.1476 264.909 39.6988 265.224 39.1745L266.097 37.7364C265.307 38.3829 264.604 39.004 263.99 39.5996C263.376 40.1952 262.874 40.7178 262.486 41.1675L261.567 42.2212C261.132 42.7023 260.729 42.9415 260.355 42.9415C259.981 42.9415 259.75 42.6565 259.75 42.0812C259.75 41.8471 259.901 41.4296 260.205 40.829C260.509 40.2283 260.94 39.4647 261.498 38.5382C261.551 38.4511 261.575 38.3496 261.567 38.248C261.571 38.2166 261.568 38.1847 261.558 38.1547C261.548 38.1247 261.531 38.0974 261.508 38.075C261.486 38.0526 261.459 38.0356 261.429 38.0255C261.399 38.0153 261.367 38.0122 261.335 38.0164C261.166 38.0164 260.919 38.1768 260.595 38.4975C260.27 38.8182 259.648 39.4918 258.726 40.5184C258.415 40.8755 258.125 41.2512 257.858 41.6434C257.536 42.1033 257.305 42.4113 257.166 42.5674C257.117 42.6343 257.054 42.6898 256.982 42.7302C256.909 42.7706 256.829 42.795 256.746 42.8016C256.466 42.8016 256.206 42.547 255.965 42.0558C255.714 41.512 255.591 40.9184 255.603 40.3199C255.593 39.8927 255.675 39.4683 255.842 39.0752C256.06 38.6242 256.308 38.188 256.583 37.7695C256.958 37.1956 257.384 36.6564 257.856 36.1583C257.988 36.0123 258.149 35.8943 258.327 35.8112C258.506 35.7281 258.7 35.6818 258.897 35.6747C259.095 35.6686 259.292 35.7151 259.467 35.8096C259.536 35.8426 259.595 35.8944 259.637 35.9593C259.678 36.0241 259.7 36.0992 259.701 36.1762C259.701 36.3391 259.559 36.6063 259.276 36.9779C258.954 37.3949 258.593 37.7809 258.199 38.1309C257.946 38.3813 257.723 38.6607 257.535 38.9632C257.374 39.1741 257.266 39.4201 257.219 39.681C257.219 39.8897 257.301 39.9941 257.474 39.9941C257.647 39.9941 257.94 39.7243 258.474 39.1796C259.009 38.6349 259.599 38.0444 260.238 37.3979C260.799 36.8304 261.394 36.2983 262.02 35.8046C262.568 35.3786 263.032 35.1665 263.412 35.1682C263.521 35.1653 263.629 35.1866 263.728 35.2307C263.828 35.2747 263.916 35.3403 263.987 35.4228C264.142 35.6021 264.224 35.8327 264.216 36.0692C264.161 36.3981 264.042 36.7129 263.865 36.9957C263.557 37.5657 263.217 38.1181 262.847 38.6502C262.396 39.3018 261.816 40.0942 261.109 41.0275Z" fill="white"/>
<path d="M268.81 40.4116V39.5946C269.896 38.4152 270.83 37.3055 271.61 36.2653C272.391 35.2252 273.014 34.3979 273.479 33.7837C273.818 33.2952 274.226 32.858 274.69 32.4856C275.077 32.2224 275.538 32.0904 276.006 32.1089C276.261 32.1089 276.401 32.2081 276.401 32.4092C276.36 32.6739 276.25 32.9232 276.082 33.1321C275.84 33.4835 275.565 33.8108 275.26 34.1095C274.769 34.606 274.334 35.1548 273.962 35.7461C273.54 36.4028 273.06 37.2394 272.524 38.2558C272.944 37.93 273.425 37.5431 273.972 37.0977C274.52 36.6522 274.968 36.301 275.314 36.049C275.63 35.8133 275.972 35.6127 276.332 35.4509C276.652 35.3071 276.999 35.2317 277.35 35.2294C277.425 35.2194 277.501 35.2243 277.574 35.244C277.647 35.2637 277.715 35.2976 277.775 35.3439C277.854 35.482 277.888 35.6413 277.872 35.7996C277.869 36.4018 277.722 36.9946 277.442 37.5278C277.105 38.1618 276.69 38.751 276.207 39.2815C275.583 39.9763 274.922 40.6373 274.227 41.2617C274.496 41.3608 274.78 41.4117 275.067 41.4119C275.968 41.4119 277.175 40.7247 278.689 39.3502V40.1902C278.098 40.7162 277.521 41.2125 276.958 41.6792C276.462 42.0984 275.931 42.4732 275.37 42.7991C274.955 43.0531 274.481 43.1968 273.995 43.2165C273.824 43.2158 273.654 43.1987 273.486 43.1656C273.323 43.133 273.162 43.0897 273.005 43.0358C272.857 42.9874 272.667 42.9136 272.432 42.822C272.198 42.7304 272.023 42.6617 271.898 42.6235C271.643 42.6846 271.508 42.7176 271.478 42.7176C271.136 42.6951 270.807 42.5818 270.523 42.3893C270.21 43.0179 269.928 43.6618 269.678 44.3186C269.373 45.1051 269.113 45.7338 268.915 46.1996C268.696 46.6808 268.414 47.131 268.077 47.5384C267.881 47.7319 267.747 47.8286 267.67 47.8286C267.334 47.8286 267.161 47.5334 267.161 46.9429C267.167 46.3951 267.272 45.8528 267.469 45.3419C267.674 44.7934 267.93 44.2651 268.233 43.7638C268.533 43.2683 268.861 42.766 269.218 42.257C269.574 41.7479 269.829 41.3695 269.981 41.1217C271.208 39.0092 272.163 37.2113 272.847 35.7283C271.067 37.902 269.722 39.4631 268.81 40.4116ZM273.537 40.9818C274.166 40.3438 274.741 39.6542 275.255 38.9201C275.632 38.3525 275.82 37.9198 275.82 37.6169C275.829 37.5583 275.823 37.4986 275.805 37.4424C275.786 37.3863 275.755 37.3352 275.713 37.2932C275.671 37.2512 275.62 37.2196 275.564 37.2007C275.508 37.1817 275.449 37.1761 275.39 37.1842C275 37.1842 274.454 37.5049 273.753 38.1463C272.934 38.9249 272.205 39.7942 271.582 40.7374C271.964 40.6827 272.35 40.6614 272.735 40.6738C273.018 40.7262 273.288 40.8306 273.532 40.9818H273.537Z" fill="white"/>
<path d="M279.985 37.347C281.005 36.3855 282.163 35.5809 283.421 34.9595C284.53 34.4403 285.388 34.1807 285.994 34.1807C286.079 34.1829 286.163 34.2021 286.241 34.237C286.319 34.272 286.389 34.322 286.447 34.3843C286.587 34.5186 286.7 34.6784 286.78 34.8551C286.846 34.9785 286.888 35.1133 286.903 35.2522C286.906 35.3135 286.893 35.3745 286.864 35.4288C286.835 35.483 286.792 35.5284 286.74 35.5602C286.557 35.6575 286.365 35.7376 286.167 35.7995L286.378 36.2754C286.462 36.4714 286.528 36.6267 286.577 36.7489C286.619 36.8507 286.642 36.9594 286.646 37.0696C286.646 37.2562 286.457 37.6032 286.08 38.1106C285.704 38.6179 285.44 38.993 285.289 39.2356C285.13 39.5021 285.051 39.8087 285.062 40.1188C285.062 40.6941 285.317 40.9817 285.854 40.9817C286.391 40.9817 287.246 40.4726 288.399 39.4545V40.1672C286.434 42.3493 285.029 43.4396 284.184 43.4379C284.06 43.4495 283.935 43.4284 283.822 43.3766C283.708 43.3248 283.61 43.2441 283.538 43.1426C283.391 42.8733 283.324 42.5679 283.344 42.262C283.344 41.6477 283.566 40.7585 284.009 39.5945C282.875 40.8518 282.033 41.747 281.481 42.2798C280.931 42.8117 280.463 43.0764 280.119 43.0764C279.95 43.0764 279.736 42.9288 279.478 42.6336C279.192 42.29 278.963 41.9035 278.798 41.4882C278.602 41.0263 278.5 40.5293 278.501 40.0272C278.494 39.7185 278.529 39.4103 278.605 39.1109C278.69 38.8325 278.829 38.5733 279.012 38.3473C279.314 37.9928 279.639 37.6586 279.985 37.347ZM285.561 36.0743C283.544 36.9991 282.101 37.7831 281.234 38.4262C280.367 39.0693 279.943 39.7336 279.962 40.4192C279.954 40.6301 279.998 40.8396 280.089 41.03C280.118 41.0991 280.166 41.1583 280.228 41.2007C280.29 41.2431 280.363 41.2669 280.438 41.2693C280.598 41.2436 280.753 41.1884 280.893 41.1064C281.733 40.6021 282.488 39.9671 283.128 39.2254C283.805 38.4466 284.616 37.3936 285.561 36.0667V36.0743Z" fill="white"/>
<path d="M296.147 37.3242C294.79 38.8513 294.107 39.911 294.098 40.5032C294.098 40.8367 294.233 41.0123 294.505 41.0123C294.826 40.9774 295.131 40.8541 295.386 40.6559C295.747 40.4192 296.31 39.9992 297.079 39.3833V40.1876C295.977 41.2736 295.129 42.0575 294.533 42.5395C293.938 43.0214 293.457 43.2623 293.09 43.2623C292.454 43.2623 292.136 42.8423 292.136 42.0024C292.136 41.7536 292.175 41.5064 292.25 41.2694C292.336 41.0066 292.444 40.7512 292.571 40.5058C292.705 40.2461 292.913 39.8737 293.195 39.3884C293.475 38.9022 293.795 38.3525 294.162 37.739C293.544 38.1026 292.982 38.5545 292.495 39.0804C292.102 39.4549 291.733 39.8536 291.39 40.2741C291.087 40.6508 290.761 41.0683 290.418 41.5315C290.182 41.857 289.927 42.1681 289.654 42.4631C289.593 42.5331 289.519 42.5903 289.436 42.6314C289.353 42.6725 289.263 42.6966 289.17 42.7024C288.916 42.7024 288.695 42.4478 288.486 41.9209C288.264 41.3413 288.157 40.7241 288.17 40.1036C288.157 39.7641 288.206 39.425 288.315 39.1033C288.478 38.7476 288.671 38.4069 288.893 38.0852C289.293 37.4373 289.757 36.8311 290.278 36.2755C290.666 35.8903 291.039 35.6977 291.395 35.6977C291.603 35.6885 291.81 35.7332 291.996 35.8275C292.067 35.8648 292.127 35.9218 292.167 35.9917C292.207 36.0616 292.226 36.1415 292.222 36.222C292.222 36.3114 292.198 36.3992 292.154 36.4766C292.108 36.5592 292.055 36.6376 291.996 36.7107C291.937 36.7795 291.815 36.9169 291.629 37.118C290.402 38.4755 289.789 39.3561 289.789 39.76C289.789 39.9865 289.863 40.0985 290.01 40.0985C290.102 40.0985 290.283 39.9484 290.553 39.6506C290.822 39.3528 291.163 38.9608 291.588 38.4746C292.059 37.9371 292.561 37.4272 293.09 36.9475C293.708 36.389 294.367 35.8784 295.063 35.4203C295.354 35.1824 295.707 35.0331 296.081 34.9901C296.206 34.9901 296.329 35.1598 296.447 35.4992C296.566 35.8326 296.627 36.1838 296.628 36.5377C296.649 36.7158 296.483 36.9755 296.147 37.3242Z" fill="white"/>
<path d="M302.378 39.8872L300.306 41.646C299.319 42.5063 298.659 42.9364 298.326 42.9364C298.024 42.9364 297.706 42.5894 297.372 41.8954C297.07 41.3329 296.896 40.7105 296.863 40.073C296.852 39.6879 296.922 39.305 297.066 38.948C297.267 38.5309 297.503 38.1316 297.771 37.7542C298.187 37.1658 298.642 36.6062 299.133 36.0794C299.488 35.694 299.874 35.3373 300.286 35.0129C300.483 34.8287 300.724 34.6981 300.986 34.6337C301.105 34.6418 301.221 34.675 301.326 34.7311C301.432 34.7873 301.524 34.8651 301.597 34.9595C301.779 35.139 301.885 35.3811 301.895 35.6365C301.848 35.8961 301.738 36.1402 301.574 36.3467C301.267 36.7852 300.926 37.1996 300.556 37.5862C299.949 38.2238 299.305 38.8246 298.626 39.3857L298.408 40.0272C298.351 40.1267 298.318 40.2384 298.313 40.353C298.307 40.3955 298.311 40.4387 298.325 40.4794C298.339 40.5201 298.362 40.5571 298.392 40.5874C298.422 40.6178 298.459 40.6406 298.5 40.6543C298.541 40.6679 298.584 40.6719 298.626 40.666C298.845 40.666 299.354 40.3911 300.154 39.8388C301.089 39.1776 301.964 38.434 302.768 37.6168C303.134 37.2502 303.437 36.9295 303.676 36.6495C303.916 36.3696 304.134 36.1074 304.328 35.8631C304.479 35.67 304.64 35.4856 304.811 35.3107C304.9 35.2077 305.021 35.1377 305.155 35.1122C305.248 35.1005 305.343 35.1189 305.425 35.1647C305.507 35.2105 305.572 35.2813 305.611 35.3667C305.734 35.6243 305.79 35.9089 305.774 36.1939C305.749 36.4757 305.653 36.7464 305.494 36.9804C305.308 37.2935 304.957 37.8306 304.445 38.5865C303.933 39.3425 303.427 40.129 302.918 40.9384C302.409 41.7478 301.9 42.6641 301.365 43.6822L302.08 42.9822C302.533 42.5394 303.015 42.0787 303.519 41.5976C304.023 41.1166 304.437 40.7297 304.766 40.4369C305.094 40.1442 305.499 39.8083 305.987 39.4188V40.2002C304.939 41.3252 303.989 42.3926 303.139 43.4022C302.289 44.4118 301.633 45.2196 301.172 45.8253L300.362 46.8842C300.154 47.1565 299.965 47.4085 299.797 47.6477C299.629 47.887 299.492 48.0652 299.38 48.195C299.268 48.3248 299.174 48.3859 299.105 48.3859C298.942 48.3859 298.797 48.2255 298.667 47.9023C298.551 47.6316 298.486 47.3415 298.476 47.0471C298.472 46.8422 298.516 46.6392 298.604 46.454C299.172 45.1882 300.43 42.9992 302.378 39.8872Z" fill="white"/>
<path d="M66.8316 0H53.1736L50.5112 4.58407L52.8351 4.93532L42.4706 15.1699L47.1641 6.22324L43.8986 5.72945L46.4998 0H36.4918V30.3373H42.995V22.256L49.3429 16.3179L59.2467 30.3373H66.8316L53.9143 12.0494L66.8316 0Z" fill="white"/>
<path d="M264.828 9.75101C264.823 7.16457 263.793 4.68555 261.963 2.85761C260.133 1.02967 257.653 0.00201741 255.066 0H236.649V6.50067H255.066C255.928 6.50067 256.755 6.84311 257.365 7.45267C257.974 8.06222 258.317 8.88897 258.317 9.75101C258.317 10.6131 257.974 11.4398 257.365 12.0493C256.755 12.6589 255.928 13.0014 255.066 13.0014H236.649V30.3373H243.149V19.5046H255.066C255.493 19.5036 255.916 19.5866 256.311 19.7491C256.706 19.9115 257.064 20.15 257.367 20.4512C257.669 20.7523 257.91 21.11 258.074 21.504C258.238 21.898 258.323 22.3204 258.324 22.7473V30.3297H264.828V22.7473C264.862 20.3401 263.97 18.0117 262.336 16.244C263.969 14.4796 264.861 12.1549 264.828 9.75101Z" fill="white"/>
</svg>
