<svg width="325" height="52" viewBox="0 0 325 52" fill="none" xmlns="http://www.w3.org/2000/svg">
<path d="M29.9205 0V6.9043H18.4124V32.221H11.5081V6.9043H0V0H29.9205Z" fill="#004EBF"/>
<path d="M94.2662 19.564C93.5034 19.564 92.7718 19.8671 92.2324 20.4065C91.6929 20.9459 91.3899 21.6775 91.3899 22.4404C91.3899 23.2032 91.6929 23.9348 92.2324 24.4742C92.7718 25.0137 93.5034 25.3167 94.2662 25.3167H114.406V32.221H94.2662C92.3997 32.2212 90.5721 31.6874 88.9992 30.6824C87.4263 29.6775 86.1738 28.2435 85.3895 26.5497C84.6053 24.8559 84.3221 22.9731 84.5734 21.1235C84.8247 19.274 85.6 17.535 86.8077 16.1119C85.6005 14.6886 84.8255 12.9497 84.5743 11.1004C84.323 9.25105 84.606 7.36845 85.3898 5.67469C86.1736 3.98093 87.4255 2.5467 88.9978 1.54122C90.5701 0.535737 92.3972 0.000963922 94.2635 0H114.403V6.9043H94.2635C93.8782 6.89249 93.4944 6.9582 93.135 7.0975C92.7755 7.2368 92.4477 7.44687 92.1709 7.71525C91.8942 7.98364 91.6742 8.30488 91.5239 8.6599C91.3737 9.01492 91.2963 9.3965 91.2963 9.78201C91.2963 10.1675 91.3737 10.5491 91.5239 10.9041C91.6742 11.2591 91.8942 11.5804 92.1709 11.8488C92.4477 12.1171 92.7755 12.3272 93.135 12.4665C93.4944 12.6058 93.8782 12.6715 94.2635 12.6597H114.403V19.564H94.2662Z" fill="#004EBF"/>
<path d="M117.857 0H124.762V25.3167H147.778V32.221H117.857V0Z" fill="#004EBF"/>
<path d="M161.009 19.564C160.246 19.564 159.514 19.8671 158.975 20.4065C158.436 20.9459 158.133 21.6775 158.133 22.4404C158.133 23.2032 158.436 23.9348 158.975 24.4742C159.514 25.0137 160.246 25.3167 161.009 25.3167H181.151V32.221H161.012C159.145 32.2207 157.318 31.6865 155.746 30.6813C154.173 29.6762 152.921 28.2422 152.137 26.5485C151.353 24.8548 151.07 22.9722 151.322 21.1229C151.573 19.2736 152.348 17.5348 153.556 16.1119C152.349 14.6886 151.574 12.9497 151.322 11.1004C151.071 9.25105 151.354 7.36845 152.138 5.67469C152.922 3.98093 154.174 2.5467 155.746 1.54122C157.318 0.535737 159.145 0.000963922 161.012 0H181.151V6.9043H161.012C160.626 6.89249 160.242 6.9582 159.883 7.0975C159.524 7.2368 159.196 7.44687 158.919 7.71525C158.642 7.98364 158.422 8.30488 158.272 8.6599C158.122 9.01492 158.044 9.3965 158.044 9.78201C158.044 10.1675 158.122 10.5491 158.272 10.9041C158.422 11.2591 158.642 11.5804 158.919 11.8488C159.196 12.1171 159.524 12.3272 159.883 12.4665C160.242 12.6058 160.626 12.6715 161.012 12.6597H181.151V19.564H161.009Z" fill="#004EBF"/>
<path d="M199.562 0H214.522V6.9043H199.562C197.336 6.9043 195.437 7.80541 193.866 9.60764C192.294 11.4099 191.508 13.5815 191.506 16.1227C191.506 18.6692 192.293 20.84 193.866 22.635C195.439 24.43 197.338 25.3311 199.562 25.3383H214.522V32.2426H199.562C195.435 32.2426 191.91 30.6702 188.986 27.5253C186.063 24.3805 184.602 20.5832 184.602 16.1335C184.602 11.6838 186.063 7.88561 188.986 4.73893C191.91 1.59225 195.435 0.0126155 199.562 0Z" fill="#004EBF"/>
<path d="M247.9 0V6.9043H236.392V32.221H229.485V6.9043H217.977V0H247.9Z" fill="#004EBF"/>
<path d="M284.723 0H291.627V32.221H284.723V0Z" fill="#004EBF"/>
<path d="M310.04 0H325.001V6.9043H310.04C307.815 6.9043 305.916 7.80541 304.344 9.60764C302.773 11.4099 301.986 13.5815 301.984 16.1227C301.984 18.6692 302.771 20.84 304.344 22.635C305.918 24.43 307.816 25.3311 310.04 25.3383H325.001V32.2426H310.04C305.913 32.2426 302.388 30.6702 299.465 27.5253C296.542 24.3805 295.08 20.5832 295.08 16.1335C295.08 11.6838 296.542 7.88561 299.465 4.73893C302.388 1.59225 305.913 0.0126155 310.04 0Z" fill="#004EBF"/>
<path d="M26.8065 32.221C26.2411 32.208 25.6898 32.0417 25.2116 31.7398C24.6458 31.3969 24.1608 30.9358 23.7896 30.3882C23.3853 29.8176 23.1087 29.1667 22.9786 28.4796C22.8848 28.0376 22.8874 27.5806 22.9863 27.1397C23.0852 26.6988 23.2781 26.2845 23.5517 25.925C24.114 25.1572 25.0151 24.4012 26.2551 23.6569C26.1357 23.3378 26.0355 23.0119 25.955 22.681C25.8106 21.9911 25.832 21.2768 26.0172 20.5967C26.1815 19.9827 26.4849 19.4148 26.9038 18.9368C27.2886 18.4982 27.7562 18.14 28.2798 17.8825C28.7513 17.6479 29.2698 17.5232 29.7964 17.5176C30.327 17.5017 30.8497 17.6489 31.2941 17.9393C31.4856 18.0595 31.6506 18.2173 31.7794 18.4032C31.9081 18.589 31.9977 18.7991 32.0429 19.0206C32.1651 19.5525 32.1139 20.1095 31.8969 20.6102C31.6786 21.0863 31.367 21.5138 30.9805 21.8673C30.5113 22.3013 30.0157 22.7058 29.4963 23.0783C28.8908 23.5055 28.5259 23.7758 28.4015 23.8893C28.8564 24.8786 29.3992 25.825 30.0235 26.717C30.4983 26.3592 30.9382 25.9573 31.3373 25.5168C31.6078 25.2055 31.8588 24.8777 32.0889 24.5354C32.2862 24.2354 32.4295 24.0867 32.516 24.0867C32.6025 24.0867 32.6538 24.1678 32.7268 24.3273C32.8059 24.4995 32.8622 24.6812 32.8944 24.8679C32.9809 25.2834 32.9809 25.7122 32.8944 26.1277C32.8029 26.5428 32.6498 26.9419 32.4403 27.3118C32.1876 27.7541 31.9011 28.1761 31.5833 28.5742L32.4592 29.3636C32.5289 29.2843 32.5931 29.2003 32.6511 29.1122C32.7015 29.0304 32.7604 28.9543 32.8269 28.8851C32.8691 28.8469 32.924 28.8257 32.9809 28.8256C33.0165 28.8256 33.0516 28.8333 33.0838 28.8482C33.116 28.8631 33.1446 28.885 33.1675 28.9121C33.2172 28.9689 33.2508 29.038 33.2648 29.1122C33.3243 29.4095 33.2098 29.9115 32.9215 30.6179C32.6331 31.3244 32.3511 31.6777 32.0753 31.6777C31.9061 31.6671 31.7444 31.6037 31.6131 31.4965C31.3922 31.3198 31.1861 31.1254 30.9967 30.9153C30.7453 30.645 30.5425 30.4233 30.383 30.2395C29.7821 30.7966 29.1274 31.2928 28.4285 31.7209C27.9418 32.0286 27.382 32.2012 26.8065 32.221ZM26.9038 25.1058C26.4558 25.4597 26.0503 25.8643 25.6955 26.3115C25.3891 26.6945 25.1363 27.1174 24.9439 27.5686C24.7901 27.8829 24.731 28.235 24.7736 28.5823C24.8764 29.123 25.1737 29.3933 25.6657 29.3933C26.1508 29.3612 26.6253 29.2364 27.0633 29.0257C27.6619 28.7699 28.2158 28.4204 28.7043 27.9903C28.2321 27.2514 27.6319 26.2899 26.9038 25.1058ZM27.7473 21.8267L27.8338 22.2781C28.6482 21.7991 29.358 21.161 29.9208 20.402C30.3713 19.7442 30.5597 19.2216 30.4858 18.8341C30.4796 18.7632 30.4596 18.6943 30.4268 18.6312C30.394 18.5681 30.349 18.5121 30.2945 18.4664C30.2401 18.4207 30.1771 18.3862 30.1092 18.3649C30.0414 18.3435 29.97 18.3358 29.8991 18.3421C29.4992 18.391 29.1304 18.5831 28.8611 18.8828C28.4567 19.2552 28.1393 19.7121 27.9311 20.2209C27.7092 20.7254 27.6451 21.2852 27.7473 21.8267Z" fill="#004EBF"/>
<path d="M263.789 41.9043V42.7342C262.908 43.5993 262.187 44.2716 261.626 44.751C261.146 45.175 260.623 45.5482 260.067 45.8647C259.636 46.1132 259.15 46.249 258.653 46.2594C258.419 46.2558 258.189 46.2062 257.974 46.1134C257.76 46.0207 257.566 45.8865 257.404 45.7187C257 45.3244 256.695 44.8412 256.512 44.3076C256.296 43.7152 256.187 43.0891 256.19 42.4585C256.181 41.9364 256.308 41.421 256.56 40.9636C256.964 40.339 257.446 39.7693 257.996 39.2686C258.706 38.5491 259.492 37.9083 260.34 37.3573C261.06 36.9086 261.627 36.6842 262.04 36.6842C262.18 36.6812 262.319 36.7071 262.449 36.7601C262.579 36.8131 262.696 36.8921 262.794 36.9924C262.896 37.0941 262.977 37.2156 263.03 37.3495C263.084 37.4834 263.109 37.6268 263.105 37.7709C263.058 38.1732 262.918 38.559 262.697 38.8982C262.444 39.3565 262.136 39.7823 261.78 40.1661C261.443 40.5229 261.175 40.7067 260.969 40.7067C260.764 40.7067 260.648 40.5905 260.648 40.3607C260.648 40.2932 260.661 40.231 260.667 40.1742C260.672 40.1174 260.667 40.0579 260.667 40.0012C260.667 39.9012 260.632 39.8471 260.561 39.8336C260.468 39.83 260.377 39.863 260.307 39.9255C259.484 40.504 258.919 40.9104 258.612 41.1447C258.341 41.348 258.098 41.5872 257.89 41.8557C257.72 42.0706 257.625 42.3356 257.62 42.6099C257.611 42.8296 257.649 43.0486 257.73 43.2529C257.811 43.4573 257.934 43.6425 258.09 43.7967C258.253 43.9512 258.446 44.0715 258.656 44.1504C258.866 44.2293 259.091 44.2653 259.315 44.2562C259.979 44.2122 260.622 44.0062 261.188 43.6561C262.099 43.1402 262.969 42.5545 263.789 41.9043Z" fill="#004EBF"/>
<path d="M271.693 41.8557V42.6856C271.3 43.0694 270.859 43.4018 270.382 43.675C269.932 43.8582 269.443 43.9261 268.96 43.8724C267.879 45.1339 266.934 45.7647 266.127 45.7647C265.665 45.7641 265.219 45.6014 264.865 45.3051C264.464 44.9696 264.152 44.5407 263.956 44.0562C263.723 43.4964 263.607 42.8947 263.616 42.2882C263.647 41.6666 263.832 41.0625 264.156 40.5311C264.517 39.8692 264.972 39.2636 265.508 38.7333C266.034 38.1974 266.636 37.7419 267.295 37.3817C267.832 37.0663 268.44 36.8898 269.063 36.868C269.378 36.8527 269.693 36.9139 269.979 37.0465C270.078 37.0878 270.163 37.1577 270.222 37.2472C270.281 37.3368 270.313 37.4419 270.312 37.5493C270.291 37.7644 270.196 37.9654 270.042 38.117C270.288 38.1469 270.516 38.2627 270.685 38.4441C270.825 38.6989 270.885 38.9899 270.858 39.2794C270.841 39.7891 270.75 40.2935 270.588 40.777C270.406 41.3714 270.151 41.9408 269.828 42.472L270.05 42.6937H270.236C270.381 42.6928 270.523 42.6566 270.65 42.5883C270.777 42.5235 270.899 42.4494 271.015 42.3666L271.693 41.8557ZM269.144 38.6117C268.461 39.0226 267.876 39.3956 267.39 39.7308C266.946 40.029 266.531 40.3685 266.151 40.7446C265.849 41.0318 265.616 41.3853 265.473 41.7773C265.265 42.7018 265.162 43.1992 265.162 43.2749C265.162 43.8156 265.541 44.0859 266.3 44.0859C266.661 44.0859 267.254 43.7804 268.082 43.1695C267.947 42.8135 267.875 42.4365 267.871 42.0557C267.877 41.5103 267.986 40.971 268.192 40.4661C268.46 39.8212 268.778 39.1984 269.144 38.6036V38.6117Z" fill="#004EBF"/>
<path d="M277.321 43.575C278.456 42.5694 279.433 41.6935 280.251 40.9474C281.069 40.2013 281.71 39.6137 282.173 39.1848C282.641 38.755 283.049 38.3927 283.406 38.1035C283.596 37.907 283.828 37.7556 284.085 37.6601C284.274 37.6601 284.455 37.8467 284.625 38.2468C284.777 38.5461 284.868 38.8721 284.896 39.2064C284.896 39.3605 284.625 39.7309 284.109 40.3121C283.593 40.8933 283.193 41.3583 282.933 41.7043C282.688 42.0121 282.551 42.3922 282.544 42.7857C282.539 42.8867 282.557 42.9875 282.596 43.0809C282.635 43.1743 282.693 43.2581 282.768 43.3263C282.84 43.3947 282.925 43.4481 283.018 43.4833C283.111 43.5186 283.21 43.5351 283.309 43.5318C283.627 43.5001 283.927 43.3707 284.168 43.1614C284.504 42.9127 285.028 42.4721 285.747 41.8368V42.7154C285.026 43.3912 284.375 43.9742 283.793 44.4644C283.318 44.8771 282.807 45.2455 282.265 45.5647C281.94 45.7734 281.569 45.8987 281.184 45.9296C281.062 45.9326 280.942 45.9081 280.831 45.858C280.72 45.808 280.622 45.7335 280.543 45.6404C280.363 45.4427 280.266 45.1832 280.273 44.9159C280.276 44.6258 280.326 44.3381 280.422 44.0643C280.549 43.7109 280.703 43.3675 280.881 43.037C281.087 42.6406 281.357 42.1639 281.692 41.607L282.619 40.0796C281.78 40.7663 281.033 41.4259 280.381 42.0584C279.729 42.691 279.196 43.2461 278.783 43.7237L277.807 44.8429C277.345 45.3538 276.918 45.6079 276.521 45.6079C276.123 45.6079 275.877 45.3051 275.877 44.6942C275.877 44.4455 276.039 44.0022 276.361 43.3642C276.684 42.7262 277.142 41.9152 277.735 40.9312C277.791 40.8386 277.816 40.7308 277.807 40.623C277.812 40.5896 277.809 40.5557 277.798 40.5238C277.787 40.492 277.769 40.463 277.745 40.4392C277.721 40.4154 277.693 40.3974 277.661 40.3866C277.629 40.3758 277.595 40.3725 277.561 40.377C277.381 40.377 277.119 40.5473 276.775 40.8879C276.431 41.2285 275.769 41.944 274.791 43.0343C274.459 43.4136 274.152 43.8127 273.869 44.2292C273.526 44.7176 273.281 45.0447 273.133 45.2105C273.081 45.2816 273.014 45.3406 272.938 45.3835C272.861 45.4264 272.775 45.4523 272.687 45.4593C272.39 45.4593 272.114 45.1889 271.857 44.6672C271.592 44.0896 271.46 43.4592 271.474 42.8235C271.463 42.3698 271.55 41.9191 271.728 41.5016C271.959 41.0225 272.222 40.5592 272.514 40.1148C272.913 39.5052 273.365 38.9325 273.866 38.4035C274.007 38.2484 274.177 38.1231 274.367 38.0349C274.557 37.9466 274.762 37.8974 274.972 37.8899C275.183 37.8834 275.392 37.9328 275.577 38.0332C275.651 38.0682 275.714 38.1233 275.757 38.1921C275.801 38.2609 275.825 38.3408 275.826 38.4225C275.826 38.5955 275.675 38.8793 275.374 39.274C275.032 39.7169 274.649 40.1268 274.231 40.4986C273.962 40.7646 273.725 41.0613 273.525 41.3826C273.355 41.6065 273.24 41.8678 273.19 42.145C273.19 42.3666 273.277 42.4775 273.461 42.4775C273.644 42.4775 273.955 42.1909 274.523 41.6124C275.091 41.0339 275.718 40.4067 276.396 39.7201C276.991 39.1174 277.623 38.5522 278.289 38.0278C278.871 37.5754 279.364 37.3502 279.767 37.352C279.883 37.3489 279.998 37.3715 280.103 37.4183C280.209 37.465 280.303 37.5347 280.378 37.6223C280.542 37.8127 280.629 38.0577 280.622 38.3089C280.563 38.6582 280.436 38.9925 280.249 39.2929C279.921 39.8983 279.56 40.485 279.167 41.0501C278.688 41.7422 278.072 42.5838 277.321 43.575Z" fill="#004EBF"/>
<path d="M285.502 42.9209V42.0531C286.655 40.8005 287.646 39.6219 288.475 38.5171C289.304 37.4124 289.966 36.5338 290.46 35.8814C290.82 35.3625 291.254 34.8982 291.746 34.5027C292.157 34.2232 292.647 34.0829 293.144 34.1026C293.414 34.1026 293.563 34.208 293.563 34.4216C293.52 34.7027 293.403 34.9675 293.225 35.1893C292.968 35.5626 292.676 35.9102 292.352 36.2274C291.83 36.7548 291.368 37.3376 290.973 37.9656C290.525 38.6631 290.015 39.5516 289.446 40.6311C289.892 40.2851 290.403 39.8742 290.984 39.4011C291.565 38.928 292.041 38.555 292.409 38.2873C292.745 38.037 293.108 37.824 293.49 37.6521C293.83 37.4994 294.199 37.4193 294.571 37.4169C294.651 37.4062 294.732 37.4115 294.809 37.4324C294.887 37.4532 294.959 37.4893 295.023 37.5385C295.107 37.6852 295.143 37.8544 295.126 38.0224C295.123 38.6621 294.966 39.2916 294.669 39.858C294.312 40.5313 293.871 41.1571 293.358 41.7206C292.694 42.4585 291.992 43.1605 291.254 43.8238C291.54 43.929 291.842 43.983 292.147 43.9832C293.104 43.9832 294.386 43.2534 295.993 41.7936V42.6857C295.366 43.2444 294.753 43.7715 294.155 44.2671C293.629 44.7124 293.064 45.1104 292.468 45.4566C292.027 45.7263 291.525 45.8789 291.008 45.8999C290.827 45.8991 290.646 45.881 290.468 45.8458C290.295 45.8113 290.124 45.7652 289.957 45.708C289.8 45.6566 289.597 45.5782 289.349 45.4809C289.1 45.3836 288.913 45.3106 288.781 45.27C288.511 45.3349 288.367 45.3701 288.335 45.3701C287.972 45.3461 287.622 45.2257 287.321 45.0213C286.988 45.6889 286.688 46.3728 286.424 47.0705C286.099 47.9058 285.823 48.5735 285.613 49.0682C285.38 49.5793 285.081 50.0574 284.723 50.4902C284.515 50.6956 284.372 50.7984 284.291 50.7984C283.934 50.7984 283.75 50.4848 283.75 49.8576C283.756 49.2758 283.867 48.6999 284.077 48.1572C284.295 47.5747 284.567 47.0136 284.888 46.4811C285.207 45.9549 285.556 45.4214 285.934 44.8808C286.313 44.3401 286.583 43.9382 286.745 43.6751C288.048 41.4313 289.063 39.5219 289.789 37.9467C287.899 40.2554 286.47 41.9134 285.502 42.9209ZM290.522 43.5264C291.19 42.8488 291.801 42.1164 292.347 41.3367C292.747 40.7339 292.947 40.2743 292.947 39.9526C292.956 39.8904 292.95 39.827 292.93 39.7673C292.911 39.7076 292.877 39.6534 292.833 39.6088C292.789 39.5642 292.735 39.5306 292.675 39.5105C292.616 39.4904 292.552 39.4844 292.49 39.493C292.075 39.493 291.496 39.8336 290.752 40.5149C289.881 41.3418 289.108 42.2651 288.446 43.2669C288.851 43.2087 289.261 43.1861 289.67 43.1993C289.97 43.2549 290.257 43.3659 290.516 43.5264H290.522Z" fill="#004EBF"/>
<path d="M297.368 39.666C298.452 38.6448 299.682 37.7902 301.017 37.1302C302.196 36.5788 303.107 36.303 303.75 36.303C303.841 36.3054 303.93 36.3258 304.013 36.3629C304.095 36.4 304.17 36.4532 304.232 36.5193C304.38 36.662 304.501 36.8317 304.586 37.0194C304.656 37.1504 304.7 37.2936 304.715 37.4411C304.719 37.5062 304.705 37.571 304.674 37.6286C304.644 37.6863 304.598 37.7345 304.542 37.7682C304.348 37.8716 304.144 37.9567 303.934 38.0224L304.159 38.5279C304.248 38.736 304.318 38.9009 304.369 39.0307C304.414 39.1389 304.439 39.2543 304.442 39.3713C304.442 39.5696 304.242 39.9381 303.842 40.477C303.442 41.0158 303.162 41.4141 303.002 41.6719C302.833 41.9548 302.749 42.2806 302.761 42.6099C302.761 43.2209 303.031 43.5263 303.602 43.5263C304.172 43.5263 305.08 42.9857 306.305 41.9043V42.6612C304.218 44.9789 302.726 46.1369 301.828 46.1351C301.696 46.1474 301.564 46.125 301.443 46.0699C301.323 46.0149 301.219 45.9292 301.142 45.8215C300.986 45.5354 300.915 45.2111 300.936 44.8861C300.936 44.2337 301.171 43.2893 301.642 42.053C300.438 43.3884 299.543 44.3391 298.957 44.905C298.373 45.47 297.876 45.7512 297.511 45.7512C297.331 45.7512 297.104 45.5944 296.83 45.2808C296.527 44.9159 296.283 44.5054 296.108 44.0643C295.899 43.5737 295.791 43.0459 295.792 42.5126C295.785 42.1847 295.822 41.8574 295.903 41.5394C295.993 41.2437 296.14 40.9684 296.335 40.7284C296.656 40.3518 297.001 39.9969 297.368 39.666ZM303.291 38.3143C301.148 39.2965 299.616 40.1291 298.695 40.8122C297.774 41.4952 297.324 42.2008 297.344 42.9289C297.336 43.1529 297.382 43.3754 297.479 43.5777C297.51 43.651 297.561 43.7139 297.627 43.759C297.692 43.804 297.769 43.8293 297.849 43.8318C298.02 43.8045 298.184 43.7459 298.333 43.6588C299.225 43.1232 300.026 42.4488 300.706 41.661C301.426 40.8338 302.287 39.7155 303.291 38.3062V38.3143Z" fill="#004EBF"/>
<path d="M314.535 39.6416C313.093 41.2636 312.368 42.3891 312.359 43.0181C312.359 43.3722 312.502 43.5588 312.791 43.5588C313.132 43.5217 313.456 43.3907 313.727 43.1803C314.111 42.9289 314.708 42.4828 315.525 41.8286V42.6829C314.355 43.8363 313.454 44.6689 312.821 45.1808C312.189 45.6926 311.678 45.9485 311.288 45.9485C310.613 45.9485 310.275 45.5025 310.275 44.6104C310.275 44.3461 310.316 44.0835 310.396 43.8318C310.488 43.5527 310.602 43.2815 310.737 43.0208C310.879 42.7451 311.1 42.3495 311.399 41.834C311.697 41.3177 312.037 40.7338 312.427 40.0823C311.77 40.4684 311.174 40.9484 310.656 41.5069C310.239 41.9047 309.847 42.3281 309.483 42.7748C309.161 43.1749 308.815 43.6182 308.45 44.1102C308.2 44.4559 307.929 44.7863 307.639 45.0996C307.574 45.174 307.496 45.2348 307.408 45.2784C307.319 45.322 307.223 45.3476 307.125 45.3538C306.855 45.3538 306.62 45.0834 306.398 44.5238C306.163 43.9082 306.049 43.2527 306.063 42.5936C306.048 42.233 306.101 41.8729 306.217 41.5313C306.389 41.1535 306.595 40.7916 306.831 40.4499C307.256 39.7618 307.748 39.1179 308.301 38.5279C308.714 38.1188 309.11 37.9142 309.488 37.9142C309.709 37.9044 309.929 37.9519 310.126 38.0521C310.202 38.0917 310.265 38.1522 310.308 38.2264C310.35 38.3007 310.371 38.3855 310.367 38.4711C310.366 38.566 310.341 38.6593 310.294 38.7414C310.245 38.8292 310.189 38.9124 310.126 38.9901C310.064 39.0631 309.934 39.2091 309.737 39.4226C308.434 40.8644 307.782 41.7998 307.782 42.2287C307.782 42.4693 307.861 42.5883 308.017 42.5883C308.115 42.5883 308.307 42.4288 308.593 42.1125C308.88 41.7962 309.242 41.3799 309.693 40.8635C310.193 40.2927 310.726 39.7511 311.288 39.2415C311.944 38.6484 312.645 38.1061 313.383 37.6195C313.693 37.3669 314.068 37.2084 314.465 37.1627C314.598 37.1627 314.728 37.3429 314.854 37.7033C314.98 38.0575 315.045 38.4304 315.046 38.8063C315.068 38.9955 314.892 39.2713 314.535 39.6416Z" fill="#004EBF"/>
<path d="M321.154 42.3639L318.954 44.2319C317.905 45.1457 317.204 45.6025 316.85 45.6025C316.53 45.6025 316.192 45.234 315.837 44.4969C315.516 43.8994 315.331 43.2384 315.296 42.5613C315.285 42.1523 315.359 41.7456 315.512 41.3664C315.726 40.9235 315.976 40.4993 316.261 40.0985C316.702 39.4736 317.186 38.8793 317.707 38.3197C318.085 37.9104 318.494 37.5316 318.932 37.187C319.141 36.9913 319.397 36.8527 319.675 36.7842C319.802 36.7928 319.925 36.8281 320.037 36.8878C320.149 36.9474 320.247 37.0301 320.324 37.1303C320.517 37.3209 320.631 37.5781 320.64 37.8494C320.591 38.1251 320.474 38.3843 320.3 38.6036C319.974 39.0694 319.612 39.5095 319.219 39.9201C318.574 40.5972 317.89 41.2354 317.169 41.8314L316.937 42.5126C316.877 42.6184 316.842 42.737 316.837 42.8587C316.831 42.9038 316.835 42.9498 316.849 42.993C316.864 43.0362 316.888 43.0754 316.92 43.1077C316.953 43.1399 316.992 43.1642 317.035 43.1787C317.078 43.1932 317.124 43.1974 317.169 43.1912C317.402 43.1912 317.943 42.8992 318.791 42.3126C319.785 41.6103 320.715 40.8205 321.568 39.9526C321.957 39.5633 322.279 39.2227 322.533 38.9253C322.787 38.6279 323.019 38.3495 323.225 38.09C323.385 37.8849 323.556 37.6891 323.738 37.5033C323.833 37.3939 323.961 37.3196 324.103 37.2925C324.202 37.2801 324.303 37.2996 324.39 37.3482C324.477 37.3969 324.546 37.472 324.587 37.5628C324.718 37.8363 324.778 38.1386 324.76 38.4414C324.734 38.7406 324.632 39.0282 324.463 39.2767C324.266 39.6092 323.893 40.1796 323.349 40.9825C322.806 41.7854 322.268 42.6207 321.727 43.4804C321.187 44.3401 320.646 45.3133 320.078 46.3946L320.838 45.6512C321.319 45.1808 321.83 44.6915 322.365 44.1806C322.9 43.6697 323.341 43.2587 323.69 42.9479C324.039 42.637 324.468 42.2801 324.987 41.8665V42.6964C323.874 43.8913 322.865 45.0249 321.962 46.0972C321.06 47.1696 320.363 48.0274 319.873 48.6708L319.013 49.7954C318.791 50.0846 318.591 50.3523 318.413 50.6064C318.235 50.8605 318.089 51.0497 317.97 51.1876C317.851 51.3255 317.751 51.3904 317.678 51.3904C317.505 51.3904 317.351 51.22 317.213 50.8767C317.089 50.5893 317.02 50.2812 317.01 49.9684C317.005 49.7508 317.052 49.5352 317.145 49.3385C317.749 47.9941 319.085 45.6692 321.154 42.3639Z" fill="#004EBF"/>
<path d="M70.9815 0H56.4755L53.6478 4.8687L56.1159 5.24176L45.1079 16.1119L50.0929 6.60965L46.6245 6.0852L49.3873 0H38.7578V32.221H45.6648V23.6379L52.4069 17.3311L62.9256 32.221H70.9815L57.2621 12.7976L70.9815 0Z" fill="#004EBF"/>
<path d="M281.27 10.3565C281.265 7.60942 280.171 4.97648 278.228 3.03504C276.284 1.0936 273.65 0.00214268 270.903 0H251.342V6.9043H270.903C271.819 6.9043 272.697 7.26801 273.344 7.91541C273.992 8.56282 274.355 9.4409 274.355 10.3565C274.355 11.272 273.992 12.1501 273.344 12.7975C272.697 13.4449 271.819 13.8086 270.903 13.8086H251.342V32.221H258.246V20.7156H270.903C271.356 20.7146 271.806 20.8028 272.225 20.9753C272.644 21.1478 273.025 21.4012 273.347 21.721C273.668 22.0408 273.923 22.4208 274.098 22.8392C274.272 23.2576 274.362 23.7063 274.363 24.1597V32.2129H281.27V24.1597C281.307 21.603 280.36 19.13 278.624 17.2527C280.358 15.3786 281.306 12.9096 281.27 10.3565Z" fill="#004EBF"/>
</svg>
