<svg xmlns="http://www.w3.org/2000/svg" width="12.267" height="8.182" viewBox="0 0 12.267 8.182">
    <path id="prefix__Icon_ionic-ios-arrow-round-forward" d="M12.319 11.408a.557.557 0 0 1 0 .784l-2.586 2.595h9.859a.554.554 0 0 1 0 1.108H9.737l2.591 2.595a.561.561 0 0 1 0 .784.552.552 0 0 1-.78 0l-3.515-3.541a.622.622 0 0 1-.115-.175.529.529 0 0 1-.043-.213.555.555 0 0 1 .158-.388l3.511-3.537a.543.543 0 0 1 .775-.012z" data-name="Icon ionic-ios-arrow-round-forward" transform="translate(-7.875 -11.252)" style="fill:#ffffff"/>
</svg>
