<svg xmlns="http://www.w3.org/2000/svg" width="29.379" height="34.148"><g data-name="Ellipse 1016" fill="none" stroke-linecap="round" stroke-width="2"><path d="M23.475 9a9 9 0 01-9 9 9 9 0 01-9-9 9 9 0 019-9 9 9 0 019 9z"/><path style="line-height:normal;font-variant-ligatures:normal;font-variant-position:normal;font-variant-caps:normal;font-variant-numeric:normal;font-variant-alternates:normal;font-feature-settings:normal;text-indent:0;text-align:start;text-decoration-line:none;text-decoration-style:solid;text-decoration-color:#000;text-transform:none;text-orientation:mixed;white-space:normal;shape-padding:0;isolation:auto;mix-blend-mode:normal;solid-color:#000;solid-opacity:1" d="M14.475 0c-4.959 0-9 4.041-9 9s4.041 9 9 9 9-4.041 9-9-4.041-9-9-9zm0 2c3.878 0 7 3.122 7 7s-3.122 7-7 7-7-3.122-7-7 3.122-7 7-7z" color="#000" font-weight="400" font-family="sans-serif" overflow="visible" fill="#222"/></g><path style="line-height:normal;font-variant-ligatures:normal;font-variant-position:normal;font-variant-caps:normal;font-variant-numeric:normal;font-variant-alternates:normal;font-feature-settings:normal;text-indent:0;text-align:start;text-decoration-line:none;text-decoration-style:solid;text-decoration-color:#000;text-transform:none;text-orientation:mixed;white-space:normal;shape-padding:0;isolation:auto;mix-blend-mode:normal;solid-color:#000;solid-opacity:1" d="M15.201 19.819c-7.189-.13-11.164 3.201-13.121 6.543-1.958 3.341-2.049 6.71-2.049 6.71a1 1 0 102 .06s.1-2.898 1.775-5.76c1.676-2.861 4.778-5.673 11.36-5.554 6.593.118 9.445 2.917 10.884 5.695 1.439 2.778 1.319 5.539 1.319 5.539a1 1 0 101.998.1s.169-3.256-1.541-6.557c-1.711-3.302-5.449-6.646-12.625-6.775z" color="#000" font-weight="400" font-family="sans-serif" overflow="visible" fill="#222"/></svg>