<svg xmlns="http://www.w3.org/2000/svg" width="31.621" height="31.621" viewBox="0 0 31.621 31.621">
    <g id="prefix__icn-call" transform="translate(-831 -14)">
        <path id="prefix__icn-phone_copy" d="M392.044 36.394a6.093 6.093 0 0 1-1.785-.262 17.708 17.708 0 0 1-9.367-7.124 10.426 10.426 0 0 1-2-4.169 5.07 5.07 0 0 1 1.541-4.772 2.8 2.8 0 0 1 2.324-.344.923.923 0 0 1 .385.457c.5 1.242 1 2.443 1.508 3.666a.959.959 0 0 1-.061.726 6.031 6.031 0 0 1-1.082 1.468.716.716 0 0 0-.081.988 11.838 11.838 0 0 0 5.885 5.229.673.673 0 0 0 .884-.2c.444-.567.879-1.1 1.288-1.663a.7.7 0 0 1 .981-.254c.827.384 1.679.8 2.5 1.2.211.1.374.186.571.28.827.436.827.449.766 1.406-.154 1.879-1.5 2.818-3.122 3.285a3.657 3.657 0 0 1-1.135.083z" data-name="icn-phone copy" transform="translate(459.427 1.625)" style="fill:333"/>
        <path id="prefix__Rectangle_5" d="M0 0H31.621V31.621H0z" data-name="Rectangle 5" transform="translate(831 14)" style="fill:none"/>
    </g>
</svg>
