<svg xmlns="http://www.w3.org/2000/svg" id="prefix__Group_316" width="58.104" height="30.795" data-name="Group 316" viewBox="0 0 58.104 30.795">
    <defs>
        <style>
            .prefix__cls-1{fill:#333}
        </style>
    </defs>
    <path id="prefix__Path_549" d="M116.806 111.56a3.108 3.108 0 0 0 3.149 3.542 4.062 4.062 0 0 0 3.936-3.542 3.108 3.108 0 0 0-3.149-3.541 4.061 4.061 0 0 0-3.936 3.541z" class="prefix__cls-1" data-name="Path 549" transform="translate(-101.477 -84.308)"/>
    <path id="prefix__Path_550" d="M82.609 111.56a3.108 3.108 0 0 0 3.149 3.542 4.062 4.062 0 0 0 3.936-3.542 3.108 3.108 0 0 0-3.149-3.541 4.061 4.061 0 0 0-3.936 3.541z" class="prefix__cls-1" data-name="Path 550" transform="translate(-41.66 -84.308)"/>
    <path id="prefix__Path_551" d="M70.283 94.665h12.879a1.255 1.255 0 1 0 0-2.51h-5.574l.195-1.753h-3.589a1.109 1.109 0 0 1 0-2.218l14.43-.09a1.253 1.253 0 0 0 1.251-1.251v-.075a1.253 1.253 0 0 0-1.251-1.251h-10.3l.165-1.461h-1.313a1.109 1.109 0 0 1 0-2.218h13.058a1.255 1.255 0 0 0 1.251-1.259v-.052a1.255 1.255 0 0 0-1.251-1.259H79.019l.165-1.438a1.667 1.667 0 0 1 1.616-1.46h21.936a1.273 1.273 0 0 1 1.289 1.461l-2.293 20.678h1.011l2.135-19.232h2.075l.749.906 4.173-.052a8.249 8.249 0 0 1 7.417 4.136l2.1 3.723a10.03 10.03 0 0 1 .966 5.761l-.622 5.169a1.585 1.585 0 0 1 .764 2.03l-.45 1.244a1.4 1.4 0 0 1-1.281.922H115a1.071 1.071 0 0 1-1.026-.689l-.517-1.349a3.964 3.964 0 0 0-3.791-2.532 5.209 5.209 0 0 0-4.593 2.982l-.382.787a1.394 1.394 0 0 1-1.236.8H87.837q.022-.225.022-.45a3.533 3.533 0 0 0-3.619-3.6h-.674a4.648 4.648 0 0 0-4.5 4.046h-1.238a1.275 1.275 0 0 1-1.3-1.453l.532-4.78h-6.78a1.109 1.109 0 0 1 0-2.218zm36.86-6.286l10.257 2.263a1.027 1.027 0 0 0 1.146-1.379l-1.97-4.076a3.519 3.519 0 0 0-3.049-1.963l-5.454-.277a1.414 1.414 0 0 0-1.438 1.236l-.33 2.982a1.085 1.085 0 0 0 .839 1.215zM93.3 84.993h1.446a1.15 1.15 0 0 0 0-2.3H93.3a1.15 1.15 0 1 0 0 2.3zm-5.207 7.057h1.453a1.15 1.15 0 0 0 0-2.3h-1.454a1.15 1.15 0 0 0 0 2.3z" class="prefix__cls-1" data-name="Path 551" transform="translate(-64.509 -76.37)"/>
    <path id="prefix__Path_552" d="M131.105 82.112h1.448a1.149 1.149 0 0 0 1.149-1.149 1.148 1.148 0 0 0-1.149-1.149h-1.448a1.149 1.149 0 0 0-1.149 1.149 1.149 1.149 0 0 0 1.149 1.149z" class="prefix__cls-1" data-name="Path 552" transform="translate(-121.135 -77.234)"/>
    <path id="prefix__Path_553" d="M134.411 89.393h1.448a1.149 1.149 0 0 0 1.149-1.149 1.149 1.149 0 0 0-1.148-1.144h-1.448a1.148 1.148 0 0 0-1.149 1.149 1.149 1.149 0 0 0 1.148 1.144z" class="prefix__cls-1" data-name="Path 553" transform="translate(-126.919 -79.06)"/>
    <path id="prefix__Path_554" d="M131.907 98.908h1.448a1.149 1.149 0 0 0 1.149-1.149 1.149 1.149 0 0 0-1.149-1.149h-1.448a1.149 1.149 0 0 0-1.149 1.149 1.149 1.149 0 0 0 1.149 1.149z" class="prefix__cls-1" data-name="Path 554" transform="translate(-122.538 -81.446)"/>
    <path id="prefix__Path_555" d="M140.379 98.908h1.448a1.149 1.149 0 0 0 1.148-1.149 1.149 1.149 0 0 0-1.148-1.149h-1.448a1.149 1.149 0 0 0-1.149 1.149 1.15 1.15 0 0 0 1.149 1.149z" class="prefix__cls-1" data-name="Path 555" transform="translate(-137.357 -81.446)"/>
    <path id="prefix__Path_556" d="M142.879 92.934h1.448a1.149 1.149 0 0 0 1.149-1.148 1.149 1.149 0 0 0-1.149-1.149h-1.448a1.149 1.149 0 0 0-1.149 1.149 1.149 1.149 0 0 0 1.149 1.148z" class="prefix__cls-1" data-name="Path 556" transform="translate(-141.73 -79.948)"/>
    <path id="prefix__Path_557" d="M133.605 107.25h1.448a1.149 1.149 0 0 0 1.147-1.15 1.148 1.148 0 0 0-1.149-1.149h-1.448a1.149 1.149 0 0 0-1.149 1.149 1.15 1.15 0 0 0 1.151 1.15z" class="prefix__cls-1" data-name="Path 557" transform="translate(-125.508 -83.538)"/>
</svg>
