<svg xmlns="http://www.w3.org/2000/svg" width="150" height="111.29" viewBox="0 0 150 111.29">
    <path id="prefix__icn-quote" d="M113.582-36.155c.372-13.4 6.7-22.332 19.355-29.4 10.794-5.955 19.355-7.816 19.355-16.749 0-5.211-5.211-10.05-11.166-10.05-24.194 0-54.715 28.66-54.715 68.114 0 24.566 15.261 43.176 36.1 43.176 18.238 0 31.266-13.027 31.266-29.777 0-17.122-11.166-28.288-26.8-28.288a38.113 38.113 0 0 0-13.395 2.974zm-82.63 0c.372-13.4 6.7-22.332 19.355-29.4 10.793-5.959 19.726-7.82 19.726-16.753 0-5.211-5.211-10.05-11.166-10.05C34.673-92.358 3.78-63.7 3.78-24.244c0 24.566 15.633 43.176 36.476 43.176 18.238 0 30.893-13.027 30.893-29.777 0-17.122-10.794-28.288-26.427-28.288a40 40 0 0 0-13.771 2.978z" transform="translate(-3.78 92.358)" style="fill:#fff"/>
</svg>
