<svg xmlns="http://www.w3.org/2000/svg" width="96" height="15.027" viewBox="0 0 96 15.027">
    <path id="prefix__icn-star-ratings" d="M979.867 3475.27l-3.18-1.651a1.117 1.117 0 0 0-1.037 0l-3.178 1.651a1.113 1.113 0 0 1-1.618-1.163l.409-2.354.2-1.142a1.1 1.1 0 0 0-.32-.976l-.433-.417-2.139-2.058a1.1 1.1 0 0 1 .618-1.881l3.554-.509a1.117 1.117 0 0 0 .839-.6l1.589-3.182a1.122 1.122 0 0 1 2 0l.849 1.7.741 1.483a1.115 1.115 0 0 0 .841.6l.122.019 3.431.49a1.1 1.1 0 0 1 .617 1.881l-2.57 2.476a1.092 1.092 0 0 0-.32.976l.606 3.5a1.112 1.112 0 0 1-1.616 1.163zm-20.031 0l-3.18-1.651a1.117 1.117 0 0 0-1.037 0l-3.178 1.651a1.113 1.113 0 0 1-1.618-1.163l.41-2.354.2-1.142a1.1 1.1 0 0 0-.32-.976l-.433-.417-2.139-2.058a1.1 1.1 0 0 1 .618-1.881l3.554-.509a1.117 1.117 0 0 0 .839-.6l1.589-3.182a1.122 1.122 0 0 1 2 0l.849 1.7.74 1.483a1.118 1.118 0 0 0 .841.6l.121.019 3.432.49a1.1 1.1 0 0 1 .617 1.881l-2.57 2.476a1.092 1.092 0 0 0-.32.976l.606 3.5a1.112 1.112 0 0 1-1.616 1.163zm-20.031 0l-3.18-1.651a1.117 1.117 0 0 0-1.037 0l-3.178 1.651a1.113 1.113 0 0 1-1.618-1.163l.409-2.354.2-1.142a1.1 1.1 0 0 0-.32-.976l-.433-.417-2.139-2.058a1.1 1.1 0 0 1 .618-1.881l3.554-.509a1.117 1.117 0 0 0 .839-.6l1.589-3.182a1.122 1.122 0 0 1 2 0l.848 1.7.741 1.483a1.116 1.116 0 0 0 .841.6l.122.019 3.432.49a1.1 1.1 0 0 1 .617 1.881l-2.57 2.476a1.092 1.092 0 0 0-.32.976l.606 3.5a1.112 1.112 0 0 1-1.616 1.163zm-20.031 0l-3.18-1.651a1.117 1.117 0 0 0-1.037 0l-3.178 1.651a1.113 1.113 0 0 1-1.618-1.163l.409-2.354.2-1.142a1.1 1.1 0 0 0-.32-.976l-.433-.417-2.139-2.058a1.1 1.1 0 0 1 .618-1.881l3.554-.509a1.117 1.117 0 0 0 .839-.6l1.589-3.182a1.122 1.122 0 0 1 2 0l.848 1.7.741 1.483a1.116 1.116 0 0 0 .841.6l.122.019 3.432.49a1.1 1.1 0 0 1 .616 1.881l-2.57 2.476a1.091 1.091 0 0 0-.32.976l.606 3.5a1.112 1.112 0 0 1-1.616 1.163zm-20.031 0l-3.18-1.651a1.117 1.117 0 0 0-1.037 0l-3.178 1.651a1.113 1.113 0 0 1-1.618-1.163l.409-2.354.2-1.142a1.1 1.1 0 0 0-.32-.976l-.433-.417-2.139-2.058a1.1 1.1 0 0 1 .618-1.881l3.554-.509a1.117 1.117 0 0 0 .839-.6l1.589-3.182a1.122 1.122 0 0 1 2 0l.848 1.7.741 1.483a1.116 1.116 0 0 0 .841.6l.122.019 3.432.49a1.1 1.1 0 0 1 .617 1.881l-2.57 2.476a1.091 1.091 0 0 0-.32.976l.606 3.5a1.112 1.112 0 0 1-1.616 1.163z" transform="translate(-888.107 -3460.371)" style="fill:#ff4040"/>
</svg>
