<svg xmlns="http://www.w3.org/2000/svg" width="12.266" height="8.181" viewBox="0 0 12.266 8.181">
    <path id="prefix__Icon_ionic-ios-arrow-round-forward" d="M15.7 11.408a.557.557 0 0 0 0 .784l2.59 2.595H8.425a.554.554 0 0 0 0 1.108h9.855l-2.59 2.595a.561.561 0 0 0 0 .784.552.552 0 0 0 .78 0l3.511-3.536a.622.622 0 0 0 .115-.175.529.529 0 0 0 .043-.213.555.555 0 0 0-.158-.388l-3.511-3.536a.543.543 0 0 0-.77-.018z" data-name="Icon ionic-ios-arrow-round-forward" transform="translate(-7.875 -11.252)" style="fill:#ffffff"/>
</svg>
