<svg xmlns="http://www.w3.org/2000/svg" width="103.339" height="67.773" viewBox="0 0 103.339 67.773">
    <defs>
        <clipPath id="prefix__clip-path">
            <path id="prefix__Path_4096" d="M87.272 44.986h-9.287a.739.739 0 0 1-.739-.739v-26.1a.739.739 0 0 1 .739-.739h9.287a.739.739 0 0 1 .739.739v26.1a.745.745 0 0 1-.739.739zm16.143-.739V26.784a9.375 9.375 0 0 0-9.375-9.375h-.707a.682.682 0 0 0-.682.682v26.156a.745.745 0 0 0 .739.739h9.287a.739.739 0 0 0 .739-.739zm-77.024 0v-26.1a.739.739 0 0 0-.739-.739h-9.3a.732.732 0 0 0-.732.739v26.1a.739.739 0 0 0 .732.739h9.293a.745.745 0 0 0 .739-.739zm15.4 0V26.784a9.375 9.375 0 0 0-9.388-9.375h-.7a.682.682 0 0 0-.694.682v26.156a.739.739 0 0 0 .739.739h9.3a.739.739 0 0 0 .739-.739zm-30.816 0V18.09a.676.676 0 0 0-.676-.682h-.707A9.375 9.375 0 0 0 .21 26.784v17.463a.745.745 0 0 0 .739.739h9.287a.739.739 0 0 0 .739-.739zM72.606 35.6v-8.835a9.375 9.375 0 0 0-9.394-9.357h-.694a.676.676 0 0 0-.676.682V44.3a.682.682 0 0 0 .676.682h.694A9.375 9.375 0 0 0 72.6 35.6zM57.2 44.2V.671A.669.669 0 0 0 56.179.1c-9.3 5.108-9.016 4.95-9.016 4.95a1.174 1.174 0 0 0-.732 1.231V44.2a.789.789 0 0 0 .789.789h9.186a.789.789 0 0 0 .794-.789z" class="prefix__cls-1" data-name="Path 4096" transform="translate(-.21 -.006)"/>
        </clipPath>
        <style>
            .prefix__cls-1{fill:#eb1c24}.prefix__cls-3{fill:#f1f1f1}
        </style>
    </defs>
    <g id="prefix__Layer_2" data-name="Layer 2" transform="translate(0 -.006)">
        <g id="prefix__Content_-_Graphics" data-name="Content - Graphics" transform="translate(0 .006)">
            <path id="prefix__Path_4094" d="M87.272 44.986h-9.287a.739.739 0 0 1-.739-.739v-26.1a.739.739 0 0 1 .739-.739h9.287a.739.739 0 0 1 .739.739v26.1a.745.745 0 0 1-.739.739zm16.143-.739V26.784a9.375 9.375 0 0 0-9.375-9.375h-.707a.682.682 0 0 0-.682.682v26.156a.745.745 0 0 0 .739.739h9.287a.739.739 0 0 0 .739-.739zm-77.024 0v-26.1a.739.739 0 0 0-.739-.739h-9.3a.732.732 0 0 0-.732.739v26.1a.739.739 0 0 0 .732.739h9.293a.745.745 0 0 0 .739-.739zm15.4 0V26.784a9.375 9.375 0 0 0-9.388-9.375h-.7a.682.682 0 0 0-.694.682v26.156a.739.739 0 0 0 .739.739h9.3a.739.739 0 0 0 .739-.739zm-30.816 0V18.09a.676.676 0 0 0-.676-.682h-.707A9.375 9.375 0 0 0 .21 26.784v17.463a.745.745 0 0 0 .739.739h9.287a.739.739 0 0 0 .739-.739zM72.606 35.6v-8.835a9.375 9.375 0 0 0-9.394-9.357h-.694a.676.676 0 0 0-.676.682V44.3a.682.682 0 0 0 .676.682h.694A9.375 9.375 0 0 0 72.6 35.6zM57.2 44.2V.671A.669.669 0 0 0 56.179.1c-9.3 5.108-9.016 4.95-9.016 4.95a1.174 1.174 0 0 0-.732 1.231V44.2a.789.789 0 0 0 .789.789h9.186a.789.789 0 0 0 .794-.789z" class="prefix__cls-1" data-name="Path 4094" transform="translate(-.077 -.006)"/>
            <g id="prefix__Group_796" data-name="Group 796" transform="translate(.133)">
                <path id="prefix__Path_4095" d="M87.272 44.986h-9.287a.739.739 0 0 1-.739-.739v-26.1a.739.739 0 0 1 .739-.739h9.287a.739.739 0 0 1 .739.739v26.1a.745.745 0 0 1-.739.739zm16.143-.739V26.784a9.375 9.375 0 0 0-9.375-9.375h-.707a.682.682 0 0 0-.682.682v26.156a.745.745 0 0 0 .739.739h9.287a.739.739 0 0 0 .739-.739zm-77.024 0v-26.1a.739.739 0 0 0-.739-.739h-9.3a.732.732 0 0 0-.732.739v26.1a.739.739 0 0 0 .732.739h9.293a.745.745 0 0 0 .739-.739zm15.4 0V26.784a9.375 9.375 0 0 0-9.388-9.375h-.7a.682.682 0 0 0-.694.682v26.156a.739.739 0 0 0 .739.739h9.3a.739.739 0 0 0 .739-.739zm-30.816 0V18.09a.676.676 0 0 0-.676-.682h-.707A9.375 9.375 0 0 0 .21 26.784v17.463a.745.745 0 0 0 .739.739h9.287a.739.739 0 0 0 .739-.739zM72.606 35.6v-8.835a9.375 9.375 0 0 0-9.394-9.357h-.694a.676.676 0 0 0-.676.682V44.3a.682.682 0 0 0 .676.682h.694A9.375 9.375 0 0 0 72.6 35.6zM57.2 44.2V.671A.669.669 0 0 0 56.179.1c-9.3 5.108-9.016 4.95-9.016 4.95a1.174 1.174 0 0 0-.732 1.231V44.2a.789.789 0 0 0 .789.789h9.186a.789.789 0 0 0 .794-.789z" class="prefix__cls-1" data-name="Path 4095" transform="translate(-.21 -.006)"/>
            </g>
            <path id="prefix__Path_4097" d="M5.265 91.23L2.8 86.451v8.365H0V82h3.157l3.352 6.547L9.767 82h3.157v12.816H10.1v-8.453L7.633 91.23z" class="prefix__cls-3" data-name="Path 4097" transform="translate(0 -30.234)"/>
            <path id="prefix__Path_4098" d="M29.057 95.843a3.157 3.157 0 0 1-.922.391 5.833 5.833 0 0 1-1.5.145 4.18 4.18 0 0 1-2.658-.726 2.929 2.929 0 0 1-.909-2.424V87.37h2.866v5.246a3.788 3.788 0 0 0 .044.631.821.821 0 0 0 .2.442.972.972 0 0 0 .442.265 2.771 2.771 0 0 0 .77.088 3.4 3.4 0 0 0 .833-.082 1.092 1.092 0 0 0 .511-.259.928.928 0 0 0 .253-.48 3.435 3.435 0 0 0 .063-.732V87.37h2.866v8.649a5.846 5.846 0 0 1-.246 1.812 2.633 2.633 0 0 1-.789 1.225 3.409 3.409 0 0 1-1.446.707 9.274 9.274 0 0 1-2.172.221h-3.642l.429-2.33h3.005a5.682 5.682 0 0 0 .953-.063 1.357 1.357 0 0 0 .631-.246.934.934 0 0 0 .328-.518 3.788 3.788 0 0 0 .088-.884z" class="prefix__cls-3" data-name="Path 4098" transform="translate(-8.5 -32.213)"/>
            <path id="prefix__Path_4099" d="M46.72 81.991h5.89a4.476 4.476 0 0 1 2.948.8 2.98 2.98 0 0 1 .928 2.361v.2a2.6 2.6 0 0 1-1.586 2.643 2.765 2.765 0 0 1 1.465 1.042 3.251 3.251 0 0 1 .511 1.894v.322a3.157 3.157 0 0 1-1.143 2.734 5.4 5.4 0 0 1-3.27.84H46.72zm2.791 2.273v2.778h2.525a1.894 1.894 0 0 0 1.263-.322 1.313 1.313 0 0 0 .36-1.029v-.215a1.155 1.155 0 0 0-.372-.96 1.73 1.73 0 0 0-1.143-.29zm0 8.29h2.721a2.147 2.147 0 0 0 1.345-.316 1.427 1.427 0 0 0 .391-1.162v-.246a1.484 1.484 0 0 0-.41-1.2 2.235 2.235 0 0 0-1.4-.335h-2.647z" class="prefix__cls-3" data-name="Path 4099" transform="translate(-17.224 -30.224)"/>
            <path id="prefix__Path_4100" d="M67.621 82.454a1.408 1.408 0 0 1-.328 1.061 2.69 2.69 0 0 1-2.576 0 1.408 1.408 0 0 1-.341-1.061 1.383 1.383 0 0 1 .341-1.035 1.844 1.844 0 0 1 1.263-.335 1.825 1.825 0 0 1 1.263.335 1.383 1.383 0 0 1 .378 1.035zm-3.062 2.595h2.866v9.426h-2.866z" class="prefix__cls-3" data-name="Path 4100" transform="translate(-23.73 -29.892)"/>
            <path id="prefix__Path_4101" d="M71.076 94.9l4.47-5.278H71l.436-2.254h7.8v1.894l-4.508 5.278h4.76l-.426 2.26h-7.986z" class="prefix__cls-3" data-name="Path 4101" transform="translate(-26.175 -32.213)"/>
            <path id="prefix__Path_4102" d="M95.828 82l5.682 8.132V82h2.816v12.816h-2.456l-5.625-8.056v8.056H93.41V82z" class="prefix__cls-3" data-name="Path 4102" transform="translate(-34.436 -30.234)"/>
            <path id="prefix__Path_4103" d="M116.321 82.46a1.408 1.408 0 0 1-.341 1.061 2.69 2.69 0 0 1-2.576 0 1.408 1.408 0 0 1-.347-1.061 1.383 1.383 0 0 1 .347-1.035 2.645 2.645 0 0 1 2.576 0 1.383 1.383 0 0 1 .341 1.035zm-3.062 2.595h2.866v9.426h-2.866z" class="prefix__cls-3" data-name="Path 4103" transform="translate(-41.677 -29.898)"/>
            <path id="prefix__Path_4104" d="M124.591 87.309h1.13q.631 0 1.667.038l-.436 2.273H124.7a5.146 5.146 0 0 0-.941.019 1.061 1.061 0 0 0-.568.29 1.263 1.263 0 0 0-.29.631 5.209 5.209 0 0 0-.082 1.048v.953a5.208 5.208 0 0 0 .082 1.048 1.212 1.212 0 0 0 .3.631 1.1 1.1 0 0 0 .581.284 4.419 4.419 0 0 0 .9.076h1.383c.4 0 .846 0 1.338-.038l-.429 2.254H124.6a8.839 8.839 0 0 1-2.229-.24 3.245 3.245 0 0 1-1.439-.739 2.727 2.727 0 0 1-.783-1.313 7.171 7.171 0 0 1-.234-1.982v-.96a6.812 6.812 0 0 1 .24-1.963 2.879 2.879 0 0 1 .8-1.326 3.321 3.321 0 0 1 1.446-.751 8.744 8.744 0 0 1 2.184-.234z" class="prefix__cls-3" data-name="Path 4104" transform="translate(-44.208 -32.19)"/>
            <path id="prefix__Path_4105" d="M133.69 94.481V81.09h2.866v4.325a2.942 2.942 0 0 1 .9-.461 4.874 4.874 0 0 1 1.515-.189 4.236 4.236 0 0 1 2.658.751 2.879 2.879 0 0 1 .966 2.424v6.541h-2.866v-5.947a3.235 3.235 0 0 0-.057-.631.928.928 0 0 0-.215-.448.966.966 0 0 0-.461-.265 3.226 3.226 0 0 0-.783-.082 3.005 3.005 0 0 0-.814.095 1.061 1.061 0 0 0-.511.284 1.048 1.048 0 0 0-.259.537 3.718 3.718 0 0 0-.076.814v5.682z" class="prefix__cls-3" data-name="Path 4105" transform="translate(-49.286 -29.898)"/>
            <path id="prefix__Path_4106" d="M152.741 92.868a3.157 3.157 0 0 0 .1.758.96.96 0 0 0 .284.467 1.162 1.162 0 0 0 .556.246 5.284 5.284 0 0 0 .865.063h3.485l-.41 2.235c-.631 0-1.162.038-1.679.038h-1.692a7.23 7.23 0 0 1-2.128-.265 2.822 2.822 0 0 1-2.065-2.128 7.513 7.513 0 0 1-.208-1.894v-1.01a7.626 7.626 0 0 1 .227-1.976 3.22 3.22 0 0 1 .758-1.4 3.283 3.283 0 0 1 1.389-.84 6.983 6.983 0 0 1 2.115-.278 4.558 4.558 0 0 1 3.245.947 3.5 3.5 0 0 1 .972 2.639v.379a5.758 5.758 0 0 1-.069.972 1.37 1.37 0 0 1-.265.631.991.991 0 0 1-.492.328 2.9 2.9 0 0 1-.758.088zm1.553-3.858a2.993 2.993 0 0 0-.789.082.916.916 0 0 0-.467.29 1.263 1.263 0 0 0-.234.568 5.368 5.368 0 0 0-.063.934h3.119a5.368 5.368 0 0 0-.063-.934 1.181 1.181 0 0 0-.246-.568.96.96 0 0 0-.474-.29 2.974 2.974 0 0 0-.783-.082z" class="prefix__cls-3" data-name="Path 4106" transform="translate(-55.242 -32.035)"/>
        </g>
    </g>
</svg>
